<svg width="68" height="54" viewBox="0 0 68 54" fill="none" xmlns="http://www.w3.org/2000/svg">
<path d="M24.2921 31.8458L43.7729 31.8549M43.7729 10.75V31.55C43.7729 36.9346 39.3844 41.3 33.9714 41.3C28.5584 41.3 24.1699 36.9346 24.1699 31.55V10.75C24.1699 5.3654 28.5584 1 33.9714 1C39.3844 1 43.7729 5.3654 43.7729 10.75ZM33.9714 31.8458L33.9917 40.9659L33.9714 31.8458Z" stroke="#FFD252" stroke-width="1.5"/>
<path d="M24.2812 23.3516H26.2651M43.4862 27.2529H40.0557H43.4862ZM43.4862 23.3529H41.526H43.4862ZM24.2812 27.2516H27.7523H24.2812Z" stroke="#FFD252" stroke-width="1.5" stroke-linecap="round"/>
<path d="M48.3467 28.2597V31.875C48.3467 39.7725 41.9104 46.175 33.9712 46.175C26.032 46.175 19.5957 39.7725 19.5957 31.875V28.2188" stroke="#E89C15" stroke-width="1.5" stroke-linecap="round" stroke-linejoin="round"/>
<path d="M34.2563 46.2563V53M28.2734 53H40.1986H28.2734Z" stroke="#E89C15" stroke-width="1.5" stroke-linecap="round"/>
</svg>
