<svg width="68" height="40" viewBox="0 0 68 40" fill="none" xmlns="http://www.w3.org/2000/svg">
<path d="M20.4213 29.5859C19.998 29.5859 19.6101 29.3393 19.4513 28.9516L12.2563 12.1234C12.0271 11.5947 12.274 10.9604 12.8206 10.7313C13.3497 10.5022 13.9845 10.7489 14.2138 11.2952L20.4565 25.8503L26.6993 11.2952C26.9285 10.7665 27.5457 10.5022 28.0924 10.7313C28.6215 10.9604 28.886 11.5771 28.6567 12.1234L21.4441 28.934C21.2325 29.3393 20.8445 29.5859 20.4213 29.5859Z" fill="#FFD354"/>
<path d="M43.9634 29.5331C43.3814 29.5331 42.9053 29.0574 42.9053 28.4759L42.9405 11.5067C42.9405 10.9252 43.4167 10.4495 43.9986 10.4495C44.5806 10.4495 45.0567 10.9252 45.0567 11.5067V11.542L45.0215 28.4759C45.0215 29.0574 44.5453 29.5331 43.9634 29.5331Z" fill="#FFD354"/>
<path d="M49.7476 21.6212H43.9634C43.3814 21.6212 42.9053 21.1454 42.9053 20.5639C42.9053 19.9824 43.3814 19.5066 43.9634 19.5066H49.7476C50.8233 19.5066 51.8285 19.1366 52.5868 18.4494C53.3098 17.7974 53.7154 16.9339 53.7154 16.0176C53.7154 14.0969 51.9343 12.5287 49.7476 12.5287H43.981C43.399 12.5287 42.9229 12.0529 42.9229 11.4714C42.9229 10.8899 43.399 10.4141 43.981 10.4141H49.7476C53.0982 10.4141 55.8316 12.9339 55.8316 16.0176C55.8316 17.5331 55.1791 18.9428 53.9976 20.0176C52.869 21.0573 51.3524 21.6212 49.7476 21.6212Z" fill="#FFD354"/>
<path d="M34.811 29.5331C34.2291 29.5331 33.7529 29.0573 33.7529 28.4758V11.489C33.7529 10.9075 34.2291 10.4318 34.811 10.4318C35.393 10.4318 35.8691 10.9075 35.8691 11.489V28.4582C35.8691 29.0573 35.393 29.5331 34.811 29.5331Z" fill="#FFD354"/>
<path d="M64.279 40H3.72095C1.67531 40 0 38.326 0 36.2643V3.71806C0 1.67401 1.67531 0 3.72095 0H64.2614C66.3247 0 67.9824 1.67401 67.9824 3.71806V36.2643C68 38.326 66.3247 40 64.279 40ZM3.72095 2.11454C2.83921 2.11454 2.11618 2.837 2.11618 3.71806V36.2643C2.11618 37.1454 2.83921 37.8678 3.72095 37.8678H64.2614C65.1432 37.8678 65.8662 37.1454 65.8662 36.2643V3.71806C65.8662 2.837 65.1432 2.11454 64.2614 2.11454H3.72095Z" fill="#E89C17"/>
<path d="M61.4751 6.94273C61.4045 6.94273 61.334 6.94273 61.2635 6.92511C61.1929 6.90749 61.1224 6.88987 61.0695 6.87225C60.9989 6.85462 60.946 6.81938 60.8931 6.76652C60.8402 6.73128 60.7873 6.67841 60.7344 6.64317C60.6815 6.59031 60.6462 6.53744 60.611 6.48458C60.5757 6.43172 60.5404 6.36123 60.5052 6.30837C60.4699 6.25551 60.4523 6.18502 60.4346 6.11454C60.417 6.04405 60.417 5.97357 60.417 5.90308C60.417 5.8326 60.417 5.76211 60.4346 5.69163C60.4523 5.62114 60.4699 5.55066 60.5052 5.4978C60.5228 5.42731 60.5581 5.37445 60.611 5.32158C60.6462 5.26872 60.6991 5.21586 60.7344 5.16299C60.7873 5.11013 60.8402 5.07489 60.8931 5.03965C60.946 5.0044 61.0166 4.96916 61.0695 4.93392C61.14 4.89868 61.1929 4.88106 61.2635 4.88106C61.6162 4.81057 61.9689 4.9163 62.2157 5.16299C62.2687 5.21586 62.3039 5.26872 62.3568 5.32158C62.3921 5.37445 62.4274 5.44493 62.445 5.4978C62.4626 5.56828 62.4979 5.62114 62.4979 5.69163C62.5155 5.76211 62.5155 5.8326 62.5155 5.90308C62.5155 5.97357 62.5155 6.04405 62.4979 6.11454C62.4803 6.18502 62.4626 6.25551 62.445 6.30837C62.4274 6.36123 62.3921 6.43172 62.3568 6.48458C62.3216 6.53744 62.2687 6.59031 62.2157 6.64317C62.0218 6.81938 61.7572 6.94273 61.4751 6.94273Z" fill="#FFD354"/>
<path d="M61.4751 35.1718C61.4045 35.1718 61.334 35.1718 61.2635 35.1542C61.1929 35.1366 61.1224 35.1189 61.0695 35.1013C60.9989 35.0837 60.946 35.0485 60.8931 35.0132C60.8402 34.978 60.7873 34.9251 60.7344 34.8722C60.6815 34.8194 60.6462 34.7665 60.611 34.7137C60.5757 34.6608 60.5404 34.5903 60.5052 34.5374C60.4875 34.467 60.4523 34.4141 60.4346 34.3436C60.417 34.2731 60.417 34.2026 60.417 34.1322C60.417 34.0617 60.417 33.9912 60.4346 33.9207C60.4523 33.8502 60.4699 33.7797 60.5052 33.7269C60.5228 33.6564 60.5581 33.6035 60.611 33.5507C60.6462 33.4978 60.6991 33.4449 60.7344 33.3921C60.7873 33.3392 60.8402 33.304 60.8931 33.2511C60.946 33.2158 61.0166 33.1806 61.0695 33.163C61.14 33.1277 61.1929 33.1101 61.2635 33.1101C61.6162 33.0396 61.9689 33.1454 62.2157 33.3921C62.2687 33.4449 62.3039 33.4978 62.3568 33.5507C62.3921 33.6035 62.4274 33.674 62.445 33.7269C62.4626 33.7973 62.4979 33.8502 62.4979 33.9207C62.5155 33.9912 62.5155 34.0617 62.5155 34.1322C62.5155 34.2026 62.5155 34.2731 62.4979 34.3436C62.4803 34.4141 62.4626 34.4846 62.445 34.5374C62.4274 34.6079 62.3921 34.6608 62.3568 34.7137C62.3216 34.7665 62.2687 34.8194 62.2157 34.8722C62.0218 35.0661 61.7572 35.1718 61.4751 35.1718Z" fill="#FFD354"/>
<path d="M6.63036 6.94273C6.55982 6.94273 6.48928 6.94273 6.41874 6.92511C6.3482 6.90749 6.27766 6.88987 6.22476 6.87225C6.15422 6.85462 6.10131 6.81938 6.04841 6.76652C5.9955 6.71366 5.9426 6.67841 5.88969 6.64317C5.83679 6.59031 5.80152 6.53744 5.74861 6.48458C5.71334 6.43172 5.67807 6.36123 5.6428 6.30837C5.60754 6.25551 5.5899 6.18502 5.5899 6.11454C5.57227 6.04405 5.57227 5.97357 5.57227 5.90308C5.57227 5.8326 5.57227 5.76211 5.5899 5.69163C5.60754 5.62114 5.62517 5.55066 5.6428 5.4978C5.66044 5.42731 5.69571 5.37445 5.74861 5.32158C5.78388 5.26872 5.83679 5.21586 5.88969 5.16299C5.9426 5.11013 5.9955 5.07489 6.04841 5.03965C6.10131 5.0044 6.17185 4.96916 6.22476 4.93392C6.29529 4.9163 6.3482 4.88106 6.41874 4.88106C6.77144 4.81057 7.12413 4.9163 7.37102 5.16299C7.565 5.35683 7.68845 5.63876 7.68845 5.90308C7.68845 6.18502 7.58264 6.44934 7.37102 6.64317C7.31812 6.69603 7.26521 6.73128 7.21231 6.76652C7.1594 6.80176 7.08886 6.837 7.03596 6.87225C6.96542 6.88987 6.91251 6.92511 6.84197 6.92511C6.77144 6.92511 6.7009 6.94273 6.63036 6.94273Z" fill="#FFD354"/>
<path d="M6.63036 35.1718C6.3482 35.1718 6.08368 35.0661 5.88969 34.8547C5.83679 34.8018 5.80152 34.7489 5.74861 34.6961C5.71334 34.6432 5.67807 34.5727 5.6428 34.5199C5.62517 34.4494 5.5899 34.3965 5.5899 34.326C5.57227 34.2555 5.57227 34.1851 5.57227 34.1146C5.57227 34.0441 5.57227 33.9736 5.5899 33.9031C5.60754 33.8326 5.62517 33.7621 5.6428 33.7093C5.66044 33.6388 5.69571 33.5859 5.74861 33.5331C5.78388 33.4802 5.83679 33.4273 5.88969 33.3745C5.9426 33.3216 5.9955 33.2864 6.04841 33.2335C6.10131 33.1983 6.17185 33.163 6.22476 33.1454C6.29529 33.1102 6.3482 33.0925 6.41874 33.0925C6.77144 33.0221 7.12413 33.1278 7.37102 33.3745C7.42393 33.4273 7.45919 33.4802 7.5121 33.5331C7.54737 33.5859 7.58264 33.6564 7.60027 33.7093C7.61791 33.7798 7.65318 33.8326 7.67081 33.9031C7.68845 33.9736 7.68845 34.0441 7.68845 34.1146C7.68845 34.1851 7.68845 34.2555 7.67081 34.326C7.65318 34.3965 7.63554 34.467 7.60027 34.5199C7.58264 34.5903 7.54737 34.6432 7.5121 34.6961C7.47683 34.7489 7.42393 34.8018 7.37102 34.8547C7.17704 35.0661 6.89488 35.1718 6.63036 35.1718Z" fill="#FFD354"/>
</svg>
