<svg width="22" height="25" viewBox="0 0 22 25" fill="none" xmlns="http://www.w3.org/2000/svg">
<path d="M9.62523 24.0292C11.3006 24.4782 13.0072 23.5451 13.436 21.9445L7.36734 20.3184C6.93847 21.919 7.94987 23.5803 9.62523 24.0292ZM21.6583 19.9883C20.9938 18.8028 19.6579 16.9293 20.899 12.2974C21.8417 8.77927 20.0121 5.27056 16.7128 3.64596L16.9656 2.70237C17.18 1.90231 16.6746 1.07147 15.8369 0.847018C14.9992 0.622562 14.1461 1.08939 13.9317 1.88945L13.6789 2.83303C10.0093 2.59031 6.67045 4.71415 5.72778 8.23223C4.48666 12.8642 2.39304 13.8187 1.22475 14.5131C0.861899 14.7289 0.642186 15.0442 0.55296 15.3867C0.359211 16.1306 0.780423 17.0005 1.68736 17.2435L19.8925 22.1216C20.7994 22.3646 21.5996 21.822 21.8033 21.0807C21.8973 20.7395 21.8648 20.3561 21.6583 19.9883Z" fill="white"/>
</svg>
