<svg width="119" height="25" viewBox="0 0 119 25" fill="none" xmlns="http://www.w3.org/2000/svg">
<g clip-path="url(#clip0_184_126)">
<path d="M21.7531 18.9891L18.9923 16.1321L16.7194 18.4943L19.4683 21.3513H16.0054V24.7029H24.9661V15.3777H21.7531V18.9891Z" fill="url(#paint0_linear_184_126)"/>
<path d="M16.0054 2.39167H19.4683L16.7194 5.2486L18.9923 7.61082L21.7531 4.75389V8.36525H24.9661V-0.959961H16.0054V2.39167Z" fill="url(#paint1_linear_184_126)"/>
<path d="M0.285095 8.36525H3.49808V4.75389L6.24696 7.61082L8.53174 5.2486L5.78286 2.39167H9.24574V-0.959961H0.285095V8.36525Z" fill="url(#paint2_linear_184_126)"/>
<path d="M8.53174 18.4943L6.24696 16.1321L3.49808 18.9891V15.3777H0.285095V24.7029H9.24574V21.3513H5.78286L8.53174 18.4943Z" fill="url(#paint3_linear_184_126)"/>
<path d="M114.205 14.1284L118.881 18.9889V14.1284H114.205Z" fill="url(#paint4_linear_184_126)"/>
<path d="M12.6259 16.5895L9.36532 13.2131H4.80765L12.6259 21.3263L20.4323 13.2131H15.8865L12.6259 16.5895Z" fill="#363940"/>
<path d="M4.80765 10.5298H9.36532L12.6259 7.15336L15.8865 10.5298H20.4323L12.6259 2.4165L4.80765 10.5298Z" fill="#363940"/>
<path d="M14.875 21.3516H10.3649V24.7032H14.875V21.3516Z" fill="#363940"/>
<path d="M14.875 -0.959961H10.3649V2.3917H14.875V-0.959961Z" fill="#363940"/>
<path d="M35.6047 0.709717H32.7963V17.9503H35.6047V0.709717Z" fill="#363940"/>
<path d="M41.9593 5.8173L36.8424 10.1089C36.6877 10.2326 35.688 11.1601 35.688 11.1601C35.688 11.1601 36.4496 11.9764 36.759 12.2856L42.4115 17.95H46.4575L39.853 11.3333L46.4575 5.80493H41.9593V5.8173Z" fill="#363940"/>
<path d="M58.0719 15.0314H51.9196C51.3365 15.0314 50.7653 14.512 50.7653 13.8565V5.84229H47.9569V13.8689C47.9569 13.9802 47.9688 14.0915 47.9807 14.2028V17.9502H51.8958H53.062L53.1572 18.0244V17.9502H58.0719V19.1128C58.0719 19.4962 57.9767 19.7806 57.7863 19.9909C57.5959 20.1887 57.3222 20.2877 56.9414 20.2877H51.8839V23.2064H56.9414C57.2032 23.2064 57.4888 23.1693 57.7863 23.1075C58.0838 23.0457 58.3694 22.9467 58.6669 22.8107C58.9525 22.6746 59.2381 22.5015 59.4999 22.2912C59.7617 22.081 59.9997 21.8213 60.202 21.5121C60.4043 21.2153 60.559 20.8566 60.6899 20.4608C60.8089 20.0651 60.8684 19.6075 60.8684 19.1128V5.84229H58.0719V15.0314Z" fill="#363940"/>
<path d="M66.5805 5.92886C66.283 5.9907 65.9855 6.08964 65.6999 6.22568C65.4143 6.36172 65.1287 6.53487 64.8669 6.74512C64.6051 6.95537 64.3671 7.21509 64.1648 7.52428C63.9625 7.8211 63.7959 8.17976 63.6769 8.57553C63.5579 8.97129 63.4984 9.41652 63.4984 9.92359V17.9625H66.283V10.0349V9.91123C66.283 9.52783 66.283 8.74867 66.283 8.74867C66.283 8.74867 67.0565 8.74867 67.4373 8.74867H67.5206H73.7562V5.84229H67.4254C67.1636 5.84229 66.878 5.86702 66.5805 5.92886Z" fill="#363940"/>
<path d="M78.5637 5.92886C78.2662 5.9907 77.9687 6.08964 77.6831 6.22568C77.3975 6.36172 77.1119 6.53487 76.8501 6.74512C76.5883 6.95537 76.3503 7.21509 76.148 7.52428C75.9457 7.8211 75.7791 8.17976 75.6601 8.57553C75.5411 8.97129 75.4816 9.41652 75.4816 9.92359V17.9625H78.29V10.0349V9.91123C78.29 9.52783 78.29 8.74867 78.29 8.74867C78.29 8.74867 79.0635 8.74867 79.4443 8.74867H79.5276H85.7632V5.84229H79.4324C79.1349 5.84229 78.8612 5.86702 78.5637 5.92886Z" fill="#363940"/>
<path d="M100.068 9.8493C100.068 9.11962 99.9368 8.50124 99.675 7.9818C99.4132 7.47473 99.0919 7.05423 98.7111 6.73267C98.3303 6.41111 97.9138 6.18849 97.4616 6.04008C97.0094 5.90404 96.5929 5.82983 96.2002 5.82983H91.1546C91.1189 5.82983 91.0832 5.82983 91.0475 5.82983H87.2871V9.83694V13.9306C87.2871 14.6603 87.418 15.2787 87.6798 15.7981C87.9416 16.3052 88.2629 16.7257 88.6437 17.0472C89.0245 17.3688 89.441 17.5914 89.8932 17.7398C90.3454 17.8759 90.7619 17.9501 91.1546 17.9501H96.2121L98.8301 15.1674H91.1784C90.8333 15.1674 90.5477 15.0561 90.3097 14.8458C90.0717 14.6232 89.9646 14.3264 89.9646 13.943V13.8688H96.224C96.9261 13.8688 97.5211 13.7327 98.0209 13.4606C98.5088 13.1886 98.9134 12.8546 99.2228 12.4589C99.5322 12.0631 99.7464 11.6302 99.8892 11.1603C99.9963 10.6903 100.068 10.2574 100.068 9.8493ZM97.0927 10.7274C96.8785 10.9748 96.5929 11.0861 96.2121 11.0861H89.9527V9.86167C89.9527 9.50301 90.0598 9.20619 90.2621 8.95884C90.4763 8.71149 90.7619 8.60018 91.1427 8.60018H96.2002C96.5334 8.60018 96.8071 8.71148 97.0451 8.92173C97.2831 9.14435 97.3902 9.44117 97.3902 9.8122C97.4021 10.1832 97.295 10.4801 97.0927 10.7274Z" fill="#363940"/>
<path d="M109.076 11.5561L114.11 5.84229H110.254L107.136 9.34232L104.042 5.84229H100.199L105.209 11.5314L99.5561 17.9502H103.424L107.16 13.7204L110.885 17.9502H114.74L109.076 11.5561Z" fill="#363940"/>
</g>
<defs>
<linearGradient id="paint0_linear_184_126" x1="20.4854" y1="24.7008" x2="20.4854" y2="15.3813" gradientUnits="userSpaceOnUse">
<stop stop-color="#00A171"/>
<stop offset="0.6034" stop-color="#009B33"/>
<stop offset="1" stop-color="#009D32"/>
</linearGradient>
<linearGradient id="paint1_linear_184_126" x1="20.4854" y1="8.36106" x2="20.4854" y2="-0.958366" gradientUnits="userSpaceOnUse">
<stop stop-color="#00A171"/>
<stop offset="0.6034" stop-color="#009B33"/>
<stop offset="1" stop-color="#009D32"/>
</linearGradient>
<linearGradient id="paint2_linear_184_126" x1="4.76323" y1="8.36106" x2="4.76323" y2="-0.958366" gradientUnits="userSpaceOnUse">
<stop stop-color="#00A171"/>
<stop offset="0.6034" stop-color="#009B33"/>
<stop offset="1" stop-color="#009D32"/>
</linearGradient>
<linearGradient id="paint3_linear_184_126" x1="4.76323" y1="24.7008" x2="4.76323" y2="15.3813" gradientUnits="userSpaceOnUse">
<stop stop-color="#00A171"/>
<stop offset="0.6034" stop-color="#009B33"/>
<stop offset="1" stop-color="#009D32"/>
</linearGradient>
<linearGradient id="paint4_linear_184_126" x1="116.54" y1="18.9878" x2="116.54" y2="14.1222" gradientUnits="userSpaceOnUse">
<stop stop-color="#00A171"/>
<stop offset="0.6034" stop-color="#009B33"/>
<stop offset="1" stop-color="#009D32"/>
</linearGradient>
<clipPath id="clip0_184_126">
<rect width="119" height="25" fill="white"/>
</clipPath>
</defs>
</svg>
