<svg width="52" height="52" viewBox="0 0 52 52" fill="none" xmlns="http://www.w3.org/2000/svg">
<rect x="1" y="1" width="50" height="50" rx="25" fill="#0C0E20"/>
<path d="M16.7907 28.9624C15.9868 27.698 14.4882 25.9615 14.4882 24.4591C14.506 23.972 14.6705 23.5016 14.9602 23.1096C15.2499 22.7175 15.6512 22.4222 16.1117 22.2621C16.0375 20.9977 15.9868 19.71 15.9868 18.4339C15.9868 17.6808 15.9868 16.9198 16.0297 16.1745C16.0689 15.7004 16.1539 15.2313 16.2834 14.7736C16.8716 12.8575 18.1532 11.2296 19.8776 10.2078C20.4944 9.83086 21.1482 9.51833 21.8289 9.27519C23.0738 8.82643 23.7889 7.30285 25.1431 7.27553C28.3081 7.19358 32.1785 9.53275 34.2079 11.7298C35.5012 13.16 36.2367 15.0077 36.2801 16.9354L36.1513 22.4767C36.4507 22.5389 36.7296 22.6755 36.9622 22.874C37.1949 23.0725 37.3737 23.3264 37.4821 23.6123C37.9153 25.3644 36.1006 27.538 35.2576 28.9312C34.4771 30.215 31.5034 34.3671 31.5034 34.3944C31.5195 34.6322 31.6127 34.8582 31.7688 35.0383C36.3855 41.3834 50 37.3786 50 49.9987H26.2003L2 49.9997C2 37.3758 15.5731 41.3873 20.1859 35.0422C20.4123 34.7105 20.5177 34.5271 20.5138 34.3827C20.5138 34.3007 17.0951 29.4658 16.7907 28.978V28.9624Z" fill="white"/>
<rect x="1" y="1" width="50" height="50" rx="25" stroke="#14162C" stroke-width="2"/>
</svg>
