<svg width="86" height="14" viewBox="0 0 86 14" fill="none" xmlns="http://www.w3.org/2000/svg">
<path d="M6.52862 0.481803L4.75195 4.11713L0.733966 4.69112C0.0233017 4.80046 -0.250031 5.67512 0.269301 6.19445L3.13929 9.00978L2.45596 12.9731C2.34663 13.6838 3.11196 14.2304 3.74062 13.9024L7.32128 12.0164L10.8746 13.9024C11.5033 14.2304 12.2686 13.6838 12.1593 12.9731L11.4759 9.00978L14.3459 6.19445C14.8653 5.67512 14.5919 4.80046 13.8813 4.69112L9.89061 4.11713L8.08661 0.481803C7.78595 -0.146862 6.85662 -0.174195 6.52862 0.481803Z" fill="#FFD354"/>
<path d="M24.0608 0.481803L22.2842 4.11713L18.2662 4.69112C17.5555 4.80046 17.2822 5.67512 17.8015 6.19445L20.6715 9.00978L19.9882 12.9731C19.8789 13.6838 20.6442 14.2304 21.2729 13.9024L24.8535 12.0164L28.4068 13.9024C29.0355 14.2304 29.8008 13.6838 29.6915 12.9731L29.0082 9.00978L31.8782 6.19445C32.3975 5.67512 32.1242 4.80046 31.4135 4.69112L27.4228 4.11713L25.6188 0.481803C25.3182 -0.146862 24.3888 -0.174195 24.0608 0.481803Z" fill="#FFD354"/>
<path d="M41.5921 0.481803L39.8154 4.11713L35.7974 4.69112C35.0868 4.80046 34.8134 5.67512 35.3328 6.19445L38.2028 9.00978L37.5194 12.9731C37.4101 13.6838 38.1754 14.2304 38.8041 13.9024L42.3848 12.0164L45.9381 13.9024C46.5667 14.2304 47.3321 13.6838 47.2227 12.9731L46.5394 9.00978L49.4094 6.19445C49.9287 5.67512 49.6554 4.80046 48.9447 4.69112L44.9541 4.11713L43.1501 0.481803C42.8494 -0.146862 41.9201 -0.174195 41.5921 0.481803Z" fill="#FFD354"/>
<path d="M59.1243 0.481803L57.3477 4.11713L53.3297 4.69112C52.619 4.80046 52.3457 5.67512 52.865 6.19445L55.735 9.00978L55.0517 12.9731C54.9423 13.6838 55.7077 14.2304 56.3363 13.9024L59.917 12.0164L63.4703 13.9024C64.099 14.2304 64.8643 13.6838 64.755 12.9731L64.0716 9.00978L66.9416 6.19445C67.461 5.67512 67.1876 4.80046 66.477 4.69112L62.4863 4.11713L60.6823 0.481803C60.3816 -0.146862 59.4523 -0.174195 59.1243 0.481803Z" fill="#FFD354"/>
<path d="M76.6565 0.481803L74.8799 4.11713L70.8619 4.69112C70.1512 4.80046 69.8779 5.67512 70.3972 6.19445L73.2672 9.00978L72.5839 12.9731C72.4746 13.6838 73.2399 14.2304 73.8686 13.9024L77.4492 12.0164L81.0025 13.9024C81.6312 14.2304 82.3965 13.6838 82.2872 12.9731L81.6039 9.00978L84.4739 6.19445C84.9932 5.67512 84.7199 4.80046 84.0092 4.69112L80.0185 4.11713L78.2145 0.481803C77.9139 -0.146862 76.9845 -0.174195 76.6565 0.481803Z" fill="white"/>
</svg>
