<svg width="122" height="20" viewBox="0 0 122 20" fill="none" xmlns="http://www.w3.org/2000/svg">
<path d="M9.32659 0.68829L6.78851 5.88161L1.04852 6.70161C0.0332881 6.8578 -0.357187 8.10732 0.384716 8.84922L4.4847 12.8711L3.50852 18.533C3.35233 19.5482 4.44566 20.3292 5.34375 19.8606L10.459 17.1663L15.5351 19.8606C16.4332 20.3292 17.5266 19.5482 17.3704 18.533L16.3942 12.8711L20.4942 8.84922C21.2361 8.10732 20.8456 6.8578 19.8304 6.70161L14.1294 5.88161L11.5523 0.68829C11.1228 -0.209802 9.79516 -0.24885 9.32659 0.68829Z" fill="#FFD354"/>
<path d="M34.3725 0.68829L31.8344 5.88161L26.0944 6.70161C25.0792 6.8578 24.6887 8.10732 25.4306 8.84922L29.5306 12.8711L28.5544 18.533C28.3982 19.5482 29.4916 20.3292 30.3896 19.8606L35.5049 17.1663L40.581 19.8606C41.4791 20.3292 42.5725 19.5482 42.4163 18.533L41.4401 12.8711L45.5401 8.84922C46.282 8.10732 45.8915 6.8578 44.8763 6.70161L39.1753 5.88161L36.5982 0.68829C36.1687 -0.209802 34.8411 -0.24885 34.3725 0.68829Z" fill="#FFD354"/>
<path d="M59.4174 0.68829L56.8793 5.88161L51.1393 6.70161C50.1241 6.8578 49.7336 8.10732 50.4755 8.84922L54.5755 12.8711L53.5993 18.533C53.4431 19.5482 54.5365 20.3292 55.4346 19.8606L60.5498 17.1663L65.626 19.8606C66.5241 20.3292 67.6174 19.5482 67.4612 18.533L66.485 12.8711L70.585 8.84922C71.3269 8.10732 70.9364 6.8578 69.9212 6.70161L64.2203 5.88161L61.6431 0.68829C61.2136 -0.209802 59.886 -0.24885 59.4174 0.68829Z" fill="#FFD354"/>
<path d="M84.4633 0.68829L81.9252 5.88161L76.1852 6.70161C75.17 6.8578 74.7795 8.10732 75.5214 8.84922L79.6214 12.8711L78.6452 18.533C78.489 19.5482 79.5824 20.3292 80.4805 19.8606L85.5957 17.1663L90.6719 19.8606C91.57 20.3292 92.6633 19.5482 92.5071 18.533L91.5309 12.8711L95.6309 8.84922C96.3728 8.10732 95.9823 6.8578 94.9671 6.70161L89.2662 5.88161L86.689 0.68829C86.2595 -0.209802 84.9319 -0.24885 84.4633 0.68829Z" fill="#FFD354"/>
<path d="M109.509 0.68829L106.971 5.88161L101.231 6.70161C100.216 6.8578 99.8254 8.10732 100.567 8.84922L104.667 12.8711L103.691 18.533C103.535 19.5482 104.628 20.3292 105.526 19.8606L110.642 17.1663L115.718 19.8606C116.616 20.3292 117.709 19.5482 117.553 18.533L116.577 12.8711L120.677 8.84922C121.419 8.10732 121.028 6.8578 120.013 6.70161L114.312 5.88161L111.735 0.68829C111.305 -0.209802 109.978 -0.24885 109.509 0.68829Z" fill="url(#paint0_linear_225_2719)"/>
<defs>
<linearGradient id="paint0_linear_225_2719" x1="100" y1="12.5" x2="111" y2="12.5" gradientUnits="userSpaceOnUse">
<stop offset="0.982192" stop-color="#FEDE3A"/>
<stop offset="0.982292" stop-color="white"/>
</linearGradient>
</defs>
</svg>
