<svg width="127" height="26" viewBox="0 0 127 26" fill="none" xmlns="http://www.w3.org/2000/svg">
<path d="M87.8176 25.4088C88.8416 25.4088 89.5756 24.6738 89.5756 23.6768C89.5756 22.7058 88.8406 21.9448 87.8176 21.9448C86.8206 21.9448 86.0596 22.6798 86.0596 23.6768C86.0586 24.6738 86.8196 25.4088 87.8176 25.4088Z" fill="#00AEEF"/>
<path d="M124.008 24.9359H126.37V8.08687H124.008V10.6849H123.903C122.407 8.82187 120.098 7.64087 117.604 7.64087C112.539 7.64087 109.127 11.6039 109.127 16.5119C109.127 21.3929 112.408 25.3829 117.604 25.3829C120.097 25.3829 122.354 24.0709 123.903 22.2859H124.008V24.9359ZM124.008 18.6899C123.168 21.1829 120.675 23.2039 117.972 23.2039C114.14 23.2039 111.595 20.2119 111.595 16.5119C111.595 12.8119 114.193 9.81987 117.972 9.81987C120.78 9.81987 123.116 11.8149 124.008 14.3339V18.6899Z" fill="#00AEEF"/>
<path d="M84.877 24.8579L78.657 16.3279L84.746 8.16591V8.08691H79.917L75.876 13.8089H75.797L71.781 8.08691H66.952V8.16591L72.91 16.3019L66.585 24.8839V24.9359H71.545L75.744 18.8479H75.849L79.865 24.9359H84.877V24.8579Z" fill="#00AEEF"/>
<path d="M29.3702 7.6669C24.2262 7.6669 20.3682 11.4459 20.3682 16.5379C20.3682 21.7079 24.3052 25.4089 29.3702 25.4089C33.2802 25.4089 36.5092 23.3359 37.7162 20.0549L37.6902 20.0289H33.2282C32.3882 21.2099 30.9452 21.6819 29.4232 21.6819C27.0612 21.6819 25.1712 20.3699 24.6202 18.0859V17.9809H38.1882C38.2672 17.5089 38.2932 17.0359 38.2932 16.5379C38.2932 11.4199 34.5402 7.6669 29.3702 7.6669ZM24.6722 14.7529C25.1442 12.6529 27.0342 11.1839 29.3702 11.1839C31.8632 11.1839 33.5172 12.7319 33.8582 14.7529H24.6722Z" fill="#00AEEF"/>
<path d="M61.0214 9.84585H60.8644C59.5784 8.50785 57.5574 7.69385 55.5634 7.69385C50.9704 7.69385 47.4014 11.6568 47.4014 16.5648C47.4014 21.4458 50.7344 25.4358 55.5634 25.4358C57.5584 25.4358 59.5264 24.6488 60.8914 23.2578H61.0484V24.9898H64.9064V8.08685H61.0484V9.84485H61.0214V9.84585ZM61.0214 18.7428C60.3654 20.3438 58.5024 21.5768 56.5074 21.5768C53.7514 21.5768 51.4944 19.3198 51.4944 16.5378C51.4944 13.7558 53.7254 11.4988 56.5074 11.4988C58.4754 11.4988 60.2074 12.6538 61.0214 14.3328V18.7428Z" fill="#00AEEF"/>
<path d="M44.8544 0.764893H40.7344V24.9359H44.8544V0.764893Z" fill="#00AEEF"/>
<path d="M18.9251 10.3709V9.97689C18.9251 6.01389 15.9071 2.78589 11.9181 2.78589H0.370117V24.9359H4.70012V17.2729H9.89612L14.6731 24.9359H19.7911V24.8569L14.4901 16.9309C17.0881 15.8819 18.9251 13.3889 18.9251 10.3709ZM14.3851 10.2659C14.3851 11.9979 13.0471 13.4939 11.3141 13.4939H4.70012V6.98489H11.3661C13.0981 6.98489 14.3841 8.37589 14.3841 10.1079V10.2659H14.3851Z" fill="#00AEEF"/>
<path d="M104.587 8.08691V18.6899C103.747 21.1829 100.991 23.2039 98.2884 23.2039C94.7714 23.2039 92.6984 20.8159 92.6984 16.5119V8.08791H90.2314V16.5119C90.2314 22.2859 93.1184 25.3829 97.9214 25.3829C100.414 25.3829 102.934 24.0969 104.482 22.3119H104.587V24.9629H106.949V8.08691H104.587Z" fill="#00AEEF"/>
</svg>
