<svg width="143" height="32" viewBox="0 0 143 32" fill="none" xmlns="http://www.w3.org/2000/svg">
<path fill-rule="evenodd" clip-rule="evenodd" d="M13.571 26.9749V6.70758H20.5924V0.825776H0.0195312V6.70655H7.07811V26.9739H13.571V26.9749ZM32.4056 27.4456C40.1062 27.4456 45.8446 21.8787 45.8446 13.921C45.8446 5.96229 40.1062 0.395325 32.4056 0.395325C24.7049 0.395325 18.9295 5.96229 18.9295 13.921C18.9295 21.8797 24.7049 27.4456 32.4056 27.4456ZM32.4056 21.4864C28.2157 21.4864 25.5359 18.1543 25.5359 13.92C25.5359 9.64745 28.2157 6.35455 32.4056 6.35455C36.5584 6.35455 39.2391 9.64745 39.2391 13.921C39.2391 18.1543 36.5584 21.4875 32.4056 21.4875V21.4864ZM53.1323 26.9749V18.1935H59.2474C64.9093 18.1935 68.0051 14.2338 68.0051 9.52978C68.0051 4.78655 64.9093 0.827841 59.2474 0.827841H46.6394V26.9749H53.1323ZM58.242 12.3138H52.996V6.70758H58.243C59.9793 6.70758 61.2624 7.72642 61.2624 9.52978C61.2624 11.2949 59.9793 12.3138 58.243 12.3138H58.242Z" fill="url(#paint0_linear_225_2815)"/>
<path fill-rule="evenodd" clip-rule="evenodd" d="M82.2919 27.4456C88.3688 27.4456 91.6525 23.7997 93.2752 20.4284L87.6886 17.6846C86.8586 19.7615 84.7074 21.4864 82.2909 21.4864C78.1763 21.4864 75.2695 18.1935 75.2695 13.92C75.2695 9.64745 78.1763 6.35455 82.2909 6.35455C84.7064 6.35455 86.8586 8.07945 87.6896 10.1574L93.2752 7.41158C91.6132 3.96384 88.3688 0.395325 82.2909 0.395325C74.5521 0.395325 68.6641 5.84565 68.6641 13.921C68.6641 21.9571 74.5521 27.4456 82.2909 27.4456H82.2919ZM99.9683 26.9749V0.827841H94.1546V26.9749H99.9683ZM120.176 26.9749V8.04126H114.363V20.2735C113.684 21.1747 112.551 22.1151 110.89 22.1151C109.003 22.1151 107.87 21.3306 107.87 19.0575V8.04023H102.057V21.5256C102.057 25.0147 103.906 27.4456 108.059 27.4456C111.117 27.4456 113.231 26.0346 114.363 24.7019V26.9749H120.176ZM127.67 20.4284V14.6271C128.387 13.6072 129.898 12.9011 131.143 12.9011C133.445 12.9011 135.182 14.6663 135.182 17.4885C135.182 20.3499 133.445 22.114 131.143 22.114C129.898 22.114 128.386 21.4472 127.67 20.4284ZM127.67 26.9749V24.7793C129.18 26.5827 131.03 27.4456 133.069 27.4456C137.56 27.4456 141.109 23.9174 141.109 17.4885C141.109 11.2949 137.598 7.56952 133.068 7.56952C131.067 7.56952 129.104 8.39326 127.67 10.274V0.827841H121.856V26.976H127.67V26.9749Z" fill="url(#paint1_linear_225_2815)"/>
<defs>
<linearGradient id="paint0_linear_225_2815" x1="0.0195312" y1="0.395325" x2="18.6033" y2="47.1018" gradientUnits="userSpaceOnUse">
<stop stop-color="#A6D540"/>
<stop offset="0.4752" stop-color="#23A5D0"/>
<stop offset="1" stop-color="#E56BBE"/>
</linearGradient>
<linearGradient id="paint1_linear_225_2815" x1="104.887" y1="0.395325" x2="104.887" y2="27.4456" gradientUnits="userSpaceOnUse">
<stop stop-color="#F8F8F8"/>
<stop offset="1" stop-color="#C1C1C1"/>
</linearGradient>
</defs>
</svg>
