<svg width="124" height="30" viewBox="0 0 124 30" fill="none" xmlns="http://www.w3.org/2000/svg">
<path d="M1.08889 0.993188H26.9111C27.5125 0.993188 28 1.4807 28 2.08208V7.16C28 7.83639 27.7065 8.47681 27.1955 8.92L12.7556 21H26.9111C27.5125 21 28 21.4786 28 22.08V27.9096C28 28.511 27.5125 28.9985 26.9111 28.9985H1.08889C0.487512 28.9985 0 28.511 0 27.9096V22.84C0 22.1636 0.29351 21.5232 0.804477 21.08L15.2444 9H1.08889C0.487512 9 0 8.50138 0 7.9V2.08208C0 1.4807 0.487512 0.993188 1.08889 0.993188ZM46 0C48.9857 0 51.6477 0.671421 53.8699 1.8984C56.0921 3.12537 57.8746 4.9079 59.1016 7.13013C60.3286 9.35235 61 12.0143 61 15C61 17.9857 60.3286 20.6477 59.1016 22.8699C57.8746 25.0921 56.0921 26.8746 53.8699 28.1016C51.6477 29.3286 48.9857 30 46 30C43.0143 30 40.3523 29.3286 38.1301 28.1016C35.9079 26.8746 34.1254 25.0921 32.8984 22.8699C31.6714 20.6477 31 17.9857 31 15C31 12.0143 31.6714 9.35235 32.8984 7.13013C34.1254 4.9079 35.9079 3.12537 38.1301 1.8984C40.3523 0.671421 43.0143 0 46 0ZM46 8C44.5718 8 43.3179 8.3017 42.2809 8.86266C41.2438 9.42361 40.4236 10.2438 39.8627 11.2809C39.3017 12.3179 39 13.5718 39 15C39 16.4282 39.3017 17.6821 39.8627 18.7191C40.4236 19.7562 41.2438 20.5764 42.2809 21.1373C43.3179 21.6983 44.5718 22 46 22C47.4282 22 48.6821 21.6983 49.7191 21.1373C50.7562 20.5764 51.5764 19.7562 52.1373 18.7191C52.6983 17.6821 53 16.4282 53 15C53 13.5718 52.6983 12.3179 52.1373 11.2809C51.5764 10.2438 50.7562 9.42361 49.7191 8.86266C48.6821 8.3017 47.4282 8 46 8ZM78 0C80.9857 0 83.6477 0.671421 85.8699 1.8984C88.0921 3.12537 89.8746 4.9079 91.1016 7.13013C92.3286 9.35235 93 12.0143 93 15C93 17.9857 92.3286 20.6477 91.1016 22.8699C89.8746 25.0921 88.0921 26.8746 85.8699 28.1016C83.6477 29.3286 80.9857 30 78 30C75.0143 30 72.3523 29.3286 70.1301 28.1016C67.9079 26.8746 66.1254 25.0921 64.8984 22.8699C63.6714 20.6477 63 17.9857 63 15C63 12.0143 63.6714 9.35235 64.8984 7.13013C66.1254 4.9079 67.9079 3.12537 70.1301 1.8984C72.3523 0.671421 75.0143 0 78 0ZM78 8C76.5718 8 75.3179 8.3017 74.2809 8.86266C73.2438 9.42361 72.4236 10.2438 71.8627 11.2809C71.3017 12.3179 71 13.5718 71 15C71 16.4282 71.3017 17.6821 71.8627 18.7191C72.4236 19.7562 73.2438 20.5764 74.2809 21.1373C75.3179 21.6983 76.5718 22 78 22C79.4282 22 80.6821 21.6983 81.7191 21.1373C82.7562 20.5764 83.5764 19.7562 84.1373 18.7191C84.6983 17.6821 85 16.4282 85 15C85 13.5718 84.6983 12.3179 84.1373 11.2809C83.5764 10.2438 82.7562 9.42361 81.7191 8.86266C80.6821 8.3017 79.4282 8 78 8ZM124.003 2.08554V27.9092C124.003 28.5106 123.516 28.9981 122.914 28.9981H117.84C117.164 28.9981 116.523 28.7046 116.08 28.1937L104 13.7555V27.9092C104 28.5106 103.501 28.9981 102.9 28.9981H97.0855C96.4841 28.9981 95.9966 28.5106 95.9966 27.9092V2.08554C95.9966 1.48413 96.4841 0.996594 97.0855 0.996594H102.16C102.837 0.996594 103.477 1.29018 103.92 1.80127L116 16.2445V2.08554C116 1.48413 116.479 0.996594 117.08 0.996594H122.914C123.516 0.996594 124.003 1.48413 124.003 2.08554Z" fill="url(#paint0_linear_225_2734)"/>
<defs>
<linearGradient id="paint0_linear_225_2734" x1="95.9081" y1="15" x2="27.0467" y2="15" gradientUnits="userSpaceOnUse">
<stop stop-color="#6339F5"/>
<stop offset="1" stop-color="#3D3F55"/>
</linearGradient>
</defs>
</svg>
