<svg width="394" height="391" viewBox="0 0 394 391" fill="none" xmlns="http://www.w3.org/2000/svg">
<path d="M116.349 200.852C117.484 204.01 118.701 209.206 116.253 213.444C112.425 220.076 101.705 220.554 98.9844 221.074C87.0479 223.453 84.5457 221.074 79.2816 224.41C75.6309 226.762 70.2301 232.176 70.3532 238.37C70.4352 242.472 72.8006 246.902 71.0368 249.732C70.5618 250.441 69.882 250.988 69.0881 251.301C68.2942 251.613 67.4239 251.676 66.5931 251.482C63.8585 250.921 62.6963 247.038 62.4912 246.013C61.2606 241.159 62.4912 237.413 61.4384 237.071C60.6043 236.797 58.7038 239.737 57.4322 242.54C55.5317 247.025 56.0649 246.642 54.137 249.759C53.5479 250.536 52.6889 251.064 51.7295 251.239C50.7701 251.414 49.7801 251.222 48.955 250.703C46.07 248.515 47.8201 242.198 48.3397 240.366C50.3496 233.119 55.1762 229.182 54.178 228.129C53.1799 227.076 48.0389 231.424 45.6187 229.66C44.2514 228.648 44.2514 225.941 44.9488 224.191C45.657 222.621 46.9172 221.366 48.4901 220.663C49.0731 220.343 49.693 220.096 50.3359 219.925C53.205 219.31 56.1496 219.126 59.073 219.378C63.6944 219.87 66.9486 216.808 71.8982 214.128C78.4026 210.703 85.5726 208.73 92.9136 208.344" fill="#73AB86"/>
<path d="M116.349 200.852C117.157 202.951 117.619 205.167 117.716 207.415C117.842 209.685 117.275 211.941 116.089 213.882C114.828 215.787 113.069 217.31 111.003 218.284C108.958 219.266 106.799 219.992 104.576 220.445C102.361 220.937 100.119 221.115 97.9313 221.58C95.7175 222.01 93.4804 222.312 91.2315 222.482C88.9755 222.687 86.7058 222.646 84.5181 222.892C83.4385 223.003 82.3824 223.28 81.387 223.713C80.3901 224.17 79.4458 224.734 78.5703 225.394C76.8293 226.716 75.2788 228.271 73.9625 230.016C72.6115 231.736 71.6462 233.727 71.1322 235.854C70.7345 238 70.8375 240.208 71.433 242.308C71.6655 243.401 71.9389 244.495 72.0894 245.644C72.3157 246.824 72.2404 248.042 71.8706 249.185C71.6542 249.78 71.3092 250.32 70.8602 250.767C70.4111 251.214 69.8691 251.556 69.2727 251.769C68.6863 251.984 68.0647 252.086 67.4405 252.07C66.803 252.064 66.1757 251.909 65.6084 251.619C64.4974 251.037 63.5944 250.124 63.0242 249.007C62.4683 247.979 62.0543 246.879 61.7936 245.739C61.3313 243.492 61.1613 241.194 61.2877 238.903C61.2877 238.63 61.2877 238.342 61.2877 238.11C61.2841 237.917 61.2423 237.726 61.1646 237.549C61.1646 237.549 61.1646 237.549 61.1646 237.549H61.0689C60.8863 237.683 60.7168 237.834 60.563 238.001C59.863 238.843 59.2578 239.76 58.7582 240.735C57.791 242.738 56.9329 244.792 56.1877 246.888C55.7414 247.945 55.211 248.965 54.6016 249.937C54.2839 250.513 53.8099 250.987 53.2343 251.304C52.6868 251.623 52.0747 251.815 51.4431 251.865C50.8142 251.947 50.175 251.891 49.5699 251.701C49.2537 251.6 48.9542 251.452 48.6812 251.263C48.4205 251.067 48.178 250.847 47.9565 250.607C47.2202 249.617 46.8094 248.422 46.7807 247.189C46.7262 244.871 47.0589 242.56 47.7651 240.352C48.3919 238.159 49.2874 236.051 50.4313 234.077C50.9919 233.078 51.6072 232.121 52.2362 231.192L53.1386 229.824C53.4245 229.441 53.6292 229.004 53.7402 228.539C53.7402 228.457 53.7402 228.539 53.6445 228.471C53.4213 228.472 53.1998 228.509 52.9882 228.58C52.496 228.744 51.9764 228.977 51.4705 229.195C50.4329 229.699 49.3532 230.111 48.2437 230.426C47.6422 230.587 47.0142 230.624 46.3978 230.535C45.7301 230.43 45.1281 230.073 44.716 229.537C44.0684 228.483 43.8119 227.234 43.9914 226.01C44.1089 224.817 44.5379 223.676 45.2356 222.701C45.9776 221.778 46.9105 221.027 47.9702 220.499C48.9874 219.928 50.0989 219.544 51.2517 219.365C52.3726 219.167 53.5054 219.043 54.6426 218.995C55.7775 218.995 56.9123 218.995 58.0472 218.995C59.1409 219.139 60.2487 219.139 61.3424 218.995C63.5049 218.532 65.5572 217.655 67.3858 216.411C69.3137 215.276 71.2416 214.087 73.2789 213.116C75.3159 212.144 77.4229 211.326 79.5821 210.669C83.8909 209.367 88.3379 208.578 92.8313 208.317C88.3558 208.665 83.9366 209.537 79.6642 210.915C77.5349 211.613 75.4601 212.468 73.4566 213.472C71.4604 214.456 69.5735 215.673 67.6593 216.862C65.7821 218.168 63.6693 219.097 61.4381 219.597C60.2986 219.74 59.1457 219.74 58.0062 219.597C56.8987 219.597 55.7912 219.597 54.67 219.597C53.5641 219.649 52.4631 219.777 51.3748 219.98C50.3004 220.156 49.2671 220.527 48.3257 221.074C47.3736 221.558 46.5385 222.244 45.8782 223.084C45.2632 223.948 44.8988 224.965 44.8254 226.023C44.6788 227.039 44.8916 228.074 45.427 228.949C45.7605 229.296 46.1917 229.533 46.6632 229.628C47.1347 229.723 47.624 229.672 48.0659 229.482C49.1187 229.173 50.1433 228.776 51.1287 228.293C51.6481 228.046 52.1824 227.831 52.7284 227.65C53.0465 227.528 53.3861 227.472 53.7265 227.486C53.9772 227.498 54.2152 227.6 54.3965 227.773C54.489 227.866 54.5611 227.978 54.6082 228.1C54.6553 228.222 54.6763 228.353 54.67 228.484C54.5642 229.117 54.3113 229.717 53.9316 230.234L53.0155 231.602C52.4003 232.531 51.785 233.461 51.2517 234.432C50.1513 236.342 49.2924 238.381 48.6949 240.503C48.0355 242.589 47.726 244.769 47.7788 246.956C47.7919 247.979 48.1215 248.973 48.7222 249.8C49.0444 250.157 49.4514 250.427 49.9055 250.585C50.3596 250.742 50.8461 250.783 51.3201 250.703C51.8052 250.674 52.2763 250.529 52.693 250.279C53.1097 250.029 53.4597 249.682 53.7129 249.267C54.291 248.336 54.7983 247.362 55.2306 246.355C55.9975 244.288 56.8785 242.266 57.8694 240.298C58.4126 239.263 59.0733 238.295 59.8384 237.413C60.0636 237.169 60.3212 236.957 60.604 236.784C60.8098 236.648 61.0555 236.585 61.3014 236.606C61.4474 236.619 61.5884 236.666 61.7139 236.742C61.8394 236.817 61.9461 236.921 62.026 237.044C62.2016 237.368 62.2998 237.728 62.3132 238.096C62.3132 238.411 62.3132 238.698 62.3132 238.985C62.1838 241.188 62.3401 243.399 62.778 245.562C62.9988 246.613 63.3719 247.626 63.8856 248.57C64.3305 249.505 65.0447 250.286 65.9365 250.812C66.3849 251.018 66.8696 251.132 67.3626 251.148C67.8555 251.165 68.3468 251.083 68.8078 250.908C69.2767 250.747 69.7033 250.483 70.0561 250.136C70.4088 249.788 70.6785 249.364 70.8451 248.898C71.1597 247.903 71.2208 246.846 71.0229 245.821C70.8861 244.741 70.6263 243.647 70.3939 242.554C70.1398 241.441 69.9571 240.313 69.847 239.176C69.7622 238.008 69.8497 236.833 70.1068 235.69C70.6547 233.444 71.6859 231.344 73.1285 229.537C74.529 227.704 76.1922 226.086 78.0644 224.738C78.9884 224.055 79.9832 223.472 81.0315 223.002C82.1043 222.553 83.2379 222.268 84.395 222.154C86.6921 221.935 88.9071 222.003 91.1495 221.826C93.3824 221.674 95.6054 221.401 97.8082 221.005C100.023 220.568 102.266 220.404 104.453 219.952C106.65 219.564 108.787 218.893 110.811 217.956C112.844 217.049 114.586 215.596 115.843 213.759C117.027 211.885 117.622 209.699 117.552 207.483C117.536 205.22 117.129 202.976 116.349 200.852V200.852Z" fill="#588766" stroke="#618466" stroke-width="0.5" stroke-miterlimit="10"/>
<path d="M104.043 22.5574L108.856 10.8808C110.36 7.21653 114.011 5.75354 117.06 7.57202L127.397 14.4768L104.153 22.6805" fill="#588766"/>
<path d="M104.043 22.5574L108.856 10.8808C110.36 7.21653 114.011 5.75354 117.06 7.57202L127.397 14.4768L104.153 22.6805" stroke="#5A7561" stroke-width="2" stroke-miterlimit="10"/>
<path d="M127.288 13.5066L136.298 3.25194C139.115 0.0525056 143.531 0.230253 146.184 3.99028L154.907 16.0634L127.383 14.5047" fill="#588766"/>
<path d="M127.288 13.5066L136.298 3.25194C139.115 0.0525056 143.531 0.230253 146.184 3.99028L154.907 16.0634L127.383 14.5047" stroke="#5A7561" stroke-width="2" stroke-miterlimit="10"/>
<path d="M151.899 15.7348L165.066 8.32414C168.128 5.4255 172.586 7.73621 173.953 12.9045L178.41 29.7358L150.791 15.3656" fill="#588766"/>
<path d="M151.899 15.7348L165.066 8.32414C168.128 5.4255 172.586 7.73621 173.953 12.9045L178.41 29.7358L150.791 15.3656" stroke="#5A7561" stroke-width="2" stroke-miterlimit="10"/>
<path d="M173.489 27.1932L191.031 25.4567C196.5 24.9098 199.905 28.8066 198.592 34.139L194.285 51.4898L173.311 27.3299" fill="#588766"/>
<path d="M173.489 27.1932L191.031 25.4567C196.5 24.9098 199.905 28.8066 198.592 34.139L194.285 51.4898L173.311 27.3299" stroke="#5A7561" stroke-width="2" stroke-miterlimit="10"/>
<path d="M191.154 48.8782L208.655 54.7438C214.124 56.1111 215.957 61.5802 212.757 66.3384L202.489 82.0074L190.921 48.5637" fill="#588766"/>
<path d="M191.154 48.8782L208.655 54.7438C214.124 56.1111 215.957 61.5802 212.757 66.3384L202.489 82.0074L190.921 48.5637" stroke="#5A7561" stroke-width="2" stroke-miterlimit="10"/>
<path d="M200.506 77.1946L216.913 85.6717C222.041 88.3243 223.053 93.8754 219.183 98.196L205.784 112.347L200.314 77.2356" fill="#588766"/>
<path d="M200.506 77.1946L216.913 85.6717C222.041 88.3243 223.053 93.8754 219.183 98.196L205.784 112.347L200.314 77.2356" stroke="#5A7561" stroke-width="2" stroke-miterlimit="10"/>
<path d="M202.885 110.009L220.182 116.449C225.651 118.473 227.278 123.915 223.955 128.618L213.126 143.891L202.68 110.078" fill="#588766"/>
<path d="M202.885 110.009L220.182 116.449C225.651 118.473 227.278 123.915 223.955 128.618L213.126 143.891L202.68 110.078" stroke="#5A7561" stroke-width="2" stroke-miterlimit="10"/>
<path d="M210.529 140.924L230.191 141.402C236.33 141.553 239.926 146.407 238.203 152.231L232.324 171.647L210.324 141.061" fill="#588766"/>
<path d="M210.529 140.924L230.191 141.402C236.33 141.553 239.926 146.407 238.203 152.231L232.324 171.647L210.324 141.061" stroke="#5A7561" stroke-width="2" stroke-miterlimit="10"/>
<path d="M232.064 168.556L250.044 167.189C255.786 166.574 259.738 170.676 258.89 176.377L256.087 194.863L231.476 169.322" fill="#588766"/>
<path d="M232.064 168.556L250.044 167.189C255.786 166.574 259.738 170.676 258.89 176.377L256.087 194.863L231.476 169.322" stroke="#5A7561" stroke-width="2" stroke-miterlimit="10"/>
<path d="M252.614 194.248L269.349 187.288C274.381 184.772 279.399 187.179 280.575 192.757L284.349 210.614L253.161 195.574" fill="#588766"/>
<path d="M252.614 194.248L269.349 187.288C274.381 184.772 279.399 187.179 280.575 192.757L284.349 210.614L253.161 195.574" stroke="#5A7561" stroke-width="2" stroke-miterlimit="10"/>
<path d="M282.681 209.192L295.793 200.359C296.643 199.692 297.646 199.245 298.711 199.059C299.776 198.873 300.87 198.953 301.896 199.293C302.923 199.633 303.849 200.222 304.592 201.006C305.336 201.791 305.873 202.748 306.157 203.791L311.462 218.913L282.612 209.342" fill="#588766"/>
<path d="M282.681 209.192L295.793 200.359C296.643 199.692 297.646 199.245 298.711 199.059C299.776 198.873 300.87 198.953 301.896 199.293C302.923 199.633 303.849 200.222 304.592 201.006C305.336 201.791 305.873 202.748 306.157 203.791L311.462 218.913L282.612 209.342" stroke="#5A7561" stroke-width="2" stroke-miterlimit="10"/>
<path d="M308.358 218.257L321.43 212.172C322.164 211.599 323.028 211.215 323.946 211.056C324.863 210.896 325.806 210.965 326.691 211.257C327.575 211.55 328.374 212.056 329.016 212.73C329.658 213.405 330.124 214.228 330.372 215.126L334.939 228.156L310.095 219.952" fill="#588766"/>
<path d="M308.358 218.257L321.43 212.172C322.164 211.599 323.028 211.215 323.946 211.056C324.863 210.896 325.806 210.965 326.691 211.257C327.575 211.55 328.374 212.056 329.016 212.73C329.658 213.405 330.124 214.228 330.372 215.126L334.939 228.156L310.095 219.952" stroke="#5A7561" stroke-width="2" stroke-miterlimit="10"/>
<path d="M332.696 225.531L341.529 220.581C342.058 220.186 342.675 219.925 343.328 219.819C343.98 219.714 344.647 219.768 345.274 219.976C345.901 220.184 346.469 220.54 346.928 221.015C347.388 221.489 347.726 222.067 347.914 222.701L351.182 232.012L333.202 227.418" fill="#588766"/>
<path d="M332.696 225.531L341.529 220.581C342.058 220.186 342.675 219.925 343.328 219.819C343.98 219.714 344.647 219.768 345.274 219.976C345.901 220.184 346.469 220.54 346.928 221.015C347.388 221.489 347.726 222.067 347.914 222.701L351.182 232.012L333.202 227.418" stroke="#5A7561" stroke-width="2" stroke-miterlimit="10"/>
<path d="M348.612 231.82L355.271 225.9C355.695 225.461 356.22 225.133 356.802 224.947C357.383 224.76 358.001 224.721 358.601 224.832C359.201 224.943 359.764 225.201 360.24 225.583C360.716 225.965 361.09 226.459 361.328 227.021L365.608 235.444L348.585 231.943" fill="#588766"/>
<path d="M348.612 231.82L355.271 225.9C355.695 225.461 356.22 225.133 356.802 224.947C357.383 224.76 358.001 224.721 358.601 224.832C359.201 224.943 359.764 225.201 360.24 225.583C360.716 225.965 361.09 226.459 361.328 227.021L365.608 235.444L348.585 231.943" stroke="#5A7561" stroke-width="2" stroke-miterlimit="10"/>
<path d="M363.037 236.278L369.696 230.344C370.12 229.905 370.647 229.578 371.229 229.392C371.811 229.207 372.43 229.169 373.03 229.281C373.63 229.394 374.193 229.653 374.668 230.037C375.144 230.42 375.516 230.916 375.753 231.479L379.855 239.532L363.01 236.387" fill="#588766"/>
<path d="M363.037 236.278L369.696 230.344C370.12 229.905 370.647 229.578 371.229 229.392C371.811 229.207 372.43 229.169 373.03 229.281C373.63 229.394 374.193 229.653 374.668 230.037C375.144 230.42 375.516 230.916 375.753 231.479L379.855 239.532L363.01 236.387" stroke="#5A7561" stroke-width="2" stroke-miterlimit="10"/>
<path d="M377.08 239.75L382.686 234.746C383.044 234.376 383.489 234.099 383.981 233.942C384.472 233.785 384.995 233.751 385.502 233.845C386.009 233.938 386.486 234.155 386.889 234.477C387.292 234.799 387.61 235.216 387.813 235.69L390.739 242.143L377.066 239.832" fill="#588766"/>
<path d="M377.08 239.75L382.686 234.746C383.044 234.376 383.489 234.099 383.981 233.942C384.472 233.785 384.995 233.751 385.502 233.845C386.009 233.938 386.486 234.155 386.889 234.477C387.292 234.799 387.61 235.216 387.813 235.69L390.739 242.143L377.066 239.832" stroke="#5A7561" stroke-width="2" stroke-miterlimit="10"/>
<path d="M113.614 268.614C105.329 272.716 103.127 283.572 100.994 294.072C99.627 301.059 98.6836 305.53 100.092 311.15C101.076 315.019 102.826 317.986 103.401 324.33C103.712 326.818 103.712 329.335 103.401 331.823C102.731 336.882 101.158 337.634 99.2031 343.814C97.5624 348.941 96.0857 353.877 98.3007 358.485C98.9825 359.842 99.9097 361.061 101.035 362.081C106.053 367.003 112.917 367.728 119.972 368.371C124.156 368.767 130.378 368.029 142.793 366.579C147.236 366.06 150.914 365.54 153.006 362.669C154.374 360.714 154.469 358.567 154.51 355.833C154.592 350.445 155.18 343.527 154.811 339.972C153.17 323.907 158.667 317.48 156.001 303.055C155.577 300.676 151.174 278.718 133.481 270.405C130.61 269.01 121.463 264.785 113.614 268.614Z" fill="#73AB86"/>
<path d="M113.614 268.614C111.049 269.981 108.892 272.005 107.366 274.48C105.867 276.938 104.695 279.581 103.879 282.342C103.018 285.076 102.389 287.906 101.787 290.723C101.186 293.54 100.625 296.356 100.133 299.091C99.578 301.913 99.417 304.798 99.6544 307.664C100.056 310.503 100.795 313.285 101.856 315.949C102.802 318.693 103.426 321.538 103.715 324.426C104.094 327.322 104.034 330.258 103.537 333.136C103.086 336.076 101.487 338.605 100.516 341.271C99.5259 343.949 98.7174 346.689 98.0956 349.475C97.4058 352.193 97.5681 355.057 98.5605 357.679C99.0925 358.948 99.8683 360.1 100.844 361.07C101.799 362.092 102.873 362.996 104.043 363.763C106.445 365.234 109.103 366.236 111.878 366.716C114.685 367.233 117.521 367.584 120.369 367.769C123.213 367.885 126.061 367.775 128.887 367.441C131.745 367.181 134.603 366.84 137.46 366.498C140.318 366.156 143.216 365.896 146.006 365.459C148.795 365.021 151.475 364.091 152.842 361.699C154.21 359.306 153.731 356.38 153.922 353.495L154.278 344.867C154.278 343.5 154.278 342.01 154.278 340.601C154.278 339.193 154.032 337.716 153.991 336.281C153.883 333.373 154.002 330.461 154.346 327.571C154.989 321.815 156.425 316.195 156.37 310.467C156.343 307.605 156.041 304.752 155.467 301.948C154.859 299.158 154.045 296.416 153.034 293.745C151.045 288.342 148.13 283.326 144.42 278.923C142.522 276.761 140.369 274.838 138.007 273.194C137.43 272.768 136.833 272.371 136.216 272.005L134.315 270.979C133.055 270.285 131.748 269.678 130.405 269.161C127.735 268.069 124.912 267.396 122.037 267.165C119.152 266.914 116.25 267.413 113.614 268.614V268.614ZM113.614 268.614C116.242 267.384 119.145 266.861 122.037 267.096C124.918 267.31 127.75 267.965 130.432 269.038C131.777 269.551 133.088 270.149 134.356 270.829L136.271 271.855C136.913 272.196 137.474 272.661 138.075 273.044C140.462 274.677 142.638 276.596 144.556 278.759C148.343 283.169 151.345 288.196 153.43 293.622C154.494 296.288 155.357 299.031 156.014 301.825C156.64 304.661 156.988 307.55 157.054 310.453C157.204 316.305 155.823 321.993 155.29 327.681C154.991 330.519 154.918 333.376 155.071 336.226C155.071 337.675 155.29 339.056 155.399 340.533C155.508 342.01 155.495 343.445 155.399 344.895L155.085 353.536C155.085 354.972 155.085 356.394 154.975 357.87C154.971 359.416 154.6 360.938 153.895 362.314C153.101 363.68 151.915 364.776 150.491 365.459C149.127 366.087 147.682 366.52 146.197 366.744C143.285 367.222 140.455 367.482 137.583 367.851C134.712 368.221 131.854 368.494 128.969 368.74C126.069 369.064 123.147 369.156 120.232 369.014C117.333 368.802 114.448 368.428 111.591 367.892C108.682 367.366 105.898 366.294 103.387 364.734C102.131 363.93 100.982 362.97 99.9688 361.876C98.9176 360.793 98.0865 359.516 97.5214 358.116C96.4918 355.296 96.3534 352.227 97.1249 349.325C97.8058 346.496 98.669 343.715 99.7091 340.998C100.762 338.263 102.348 335.83 102.813 333.027C103.339 330.218 103.436 327.346 103.1 324.509C102.864 321.654 102.295 318.836 101.405 316.113C100.367 313.411 99.6645 310.592 99.3125 307.718C99.1376 304.827 99.3491 301.926 99.9415 299.091C100.447 296.247 101.063 293.43 101.651 290.614C102.218 287.785 102.93 284.988 103.784 282.232C104.613 279.467 105.804 276.824 107.325 274.37C108.878 271.931 111.047 269.945 113.614 268.614Z" fill="#5C8768"/>
<path d="M17.425 135.277C15.9346 146.762 54.8206 166.957 93.105 165.835C96.634 165.739 100.154 165.433 103.647 164.919C79.1585 204.899 76.0684 250.347 96.4959 281.863C116.923 313.379 154.661 321.118 164.984 323.21C216.941 333.738 265.289 306.173 278.47 298.598C294.112 289.697 300.346 283.052 321.116 273.987C330.687 269.886 342.377 265.606 369.778 254.217C384.189 248.228 394.553 243.278 392.639 242.28C388.818 240.666 384.854 239.416 380.798 238.547C354.249 232.125 328.079 224.223 302.411 214.88C285.306 208.481 274.149 209.999 247.828 184.718C235.673 173.055 216.681 154.856 208.778 126.007C203.309 105.962 209.421 103.884 203.966 81.064C200.26 65.4906 192.494 32.963 164.915 19.3586C144.406 9.25435 122.994 14.5047 120.465 15.161C112.698 17.1846 104.877 21.5052 89.2218 30.2011C73.9491 38.6372 73.5799 40.3053 63.9952 44.5849C47.0817 52.2007 43.9643 48.8782 32.8345 54.7848C13.6923 64.9847 5.9397 83.8669 4.80484 86.7519C4.80484 86.7519 -3.89118 108.957 5.00993 128.495C5.92217 130.458 7.29685 132.17 9.01612 133.486C11.8235 135.516 15.2351 136.538 18.6966 136.384" fill="#73AB86"/>
<path d="M17.425 135.277C15.9346 146.762 54.8206 166.957 93.105 165.835C96.634 165.739 100.154 165.433 103.647 164.919C79.1585 204.899 76.0684 250.347 96.4959 281.863C116.923 313.379 154.661 321.118 164.984 323.21C216.941 333.738 265.289 306.173 278.47 298.598C294.112 289.697 300.346 283.052 321.116 273.987C330.687 269.886 342.377 265.606 369.778 254.217C384.189 248.228 394.553 243.278 392.639 242.28C388.818 240.666 384.854 239.416 380.798 238.547C354.249 232.125 328.079 224.223 302.411 214.88C285.306 208.481 274.149 209.999 247.828 184.718C235.673 173.055 216.681 154.856 208.778 126.007C203.309 105.962 209.421 103.884 203.966 81.064C200.26 65.4906 192.494 32.963 164.915 19.3586C144.406 9.25435 122.994 14.5047 120.465 15.161C112.698 17.1846 104.877 21.5052 89.2218 30.2011C73.9491 38.6372 73.5799 40.3053 63.9952 44.5849C47.0817 52.2007 43.9643 48.8782 32.8345 54.7848C13.6923 64.9847 5.9397 83.8669 4.80484 86.7519C4.80484 86.7519 -3.89118 108.957 5.00993 128.495C5.92217 130.458 7.29685 132.17 9.01612 133.486C11.8235 135.516 15.2351 136.538 18.6966 136.384" stroke="#5C8768" stroke-miterlimit="10"/>
<path d="M392.968 242.389C392.872 242.266 392.599 242.389 392.284 242.389C391.97 242.389 391.204 242.649 391.067 242.704C389.7 243.264 380.512 245.575 377.312 246.354C375.535 246.778 375.029 246.765 372.554 247.435C366.934 248.939 361.533 250.169 355.955 251.536C334.229 256.705 290.913 280.359 264.688 288.098C229.658 298.448 188.57 290.832 160.212 274.274C116.131 248.501 105.507 194.234 91.7381 198.787C81.4697 202.191 81.5654 231.601 81.7842 239.067C82.5625 258.422 89.9728 276.921 102.772 291.461C123.938 315.976 152.624 321.268 166.215 323.729C187.404 327.529 209.163 326.722 230.013 321.363C246.853 316.972 263.107 310.582 278.429 302.331C296.6 292.692 385.078 248.911 390.698 244.905C391.152 244.598 391.578 244.25 391.97 243.866C392.345 243.573 392.661 243.211 392.899 242.799C393.05 242.526 392.995 242.417 392.968 242.389Z" fill="url(#paint0_radial_64_741)" stroke="#C4B587" stroke-miterlimit="10"/>
<path d="M179.887 282.383C179.45 284.092 178.903 286.279 178.424 288.276C176.401 296.63 175.033 302.249 175.006 310.084C175.006 326.491 180.885 329.882 179.969 346.645C179.614 353.098 179.409 356.872 177.495 361.685C175.799 365.937 173.748 368.521 172.531 374.278C171.656 378.379 171.164 380.731 172.23 382.878C173.68 385.804 177.549 387.267 191.127 388.101C207.643 389.099 216.052 389.468 223.367 385.954C227.469 383.944 233.321 381.073 236.384 374.893C238.955 369.725 237.97 365.459 232.98 342.939C230.108 330.032 228.673 323.483 228.741 319.422C228.905 309.742 231.475 308.908 233.28 296.178C233.485 294.811 233.814 293.034 233.991 291.694" fill="#73AB86"/>
<path d="M179.887 282.383C178.752 287.633 177.494 292.883 176.551 298.147C175.616 303.407 175.368 308.766 175.813 314.09C176.003 316.738 176.401 319.366 177.002 321.952C177.604 324.536 178.37 327.093 179.108 329.704C180.609 334.982 181.26 340.465 181.036 345.947C180.954 348.682 180.844 351.335 180.557 354.151C180.267 356.928 179.595 359.652 178.561 362.245C177.535 364.843 176.182 367.209 175.238 369.601C174.318 372.002 173.644 374.489 173.228 377.026C172.955 378.222 172.849 379.451 172.914 380.676C173.008 381.728 173.497 382.705 174.281 383.411C175.881 384.778 178.616 385.325 181.118 385.749C186.314 386.542 191.701 386.733 197.06 387.034C202.36 387.444 207.681 387.512 212.99 387.239C215.566 387.071 218.109 386.561 220.551 385.722C221.762 385.275 222.944 384.754 224.092 384.163C225.282 383.575 226.444 382.96 227.551 382.29C229.757 381.001 231.723 379.341 233.362 377.381C234.978 375.494 236.059 373.209 236.493 370.764C236.702 368.195 236.56 365.61 236.07 363.08C235.673 360.454 235.167 357.829 234.634 355.204L231.352 339.412C230.286 334.134 229.096 328.884 228.399 323.497C227.838 318.045 228.564 312.538 230.518 307.417C231.352 304.872 232.033 302.279 232.556 299.651C233.089 297.012 233.526 294.36 234.032 291.721C233.663 294.456 233.362 297.054 232.966 299.72C232.547 302.388 231.962 305.027 231.216 307.623C230.415 310.162 229.856 312.771 229.547 315.416C229.411 316.783 229.383 318.069 229.37 319.395C229.398 320.71 229.522 322.022 229.739 323.319C230.559 328.569 231.845 333.806 233.048 339.043L236.698 354.766C237.286 357.392 237.861 360.03 238.326 362.71C238.887 365.462 239.061 368.278 238.845 371.078C237.902 377.053 233.554 381.538 228.85 384.409C227.661 385.147 226.444 385.776 225.227 386.419C223.992 387.067 222.718 387.638 221.412 388.128C218.764 389.056 216.006 389.635 213.208 389.851C207.775 390.182 202.326 390.15 196.896 389.755C191.523 389.413 186.136 389.195 180.694 388.388C179.309 388.163 177.939 387.852 176.592 387.458C175.091 387.056 173.692 386.338 172.49 385.353C171.267 384.208 170.516 382.647 170.385 380.977C170.3 379.518 170.424 378.054 170.754 376.629C171.216 373.894 171.959 371.214 172.969 368.631C174.035 366.033 175.389 363.722 176.346 361.316C178.37 356.544 178.588 351.225 178.916 345.865C179.258 340.582 178.75 335.278 177.412 330.155C175.832 324.942 174.85 319.566 174.486 314.131C174.235 308.707 174.695 303.274 175.854 297.97C176.975 292.733 178.465 287.565 179.887 282.383Z" fill="#5C8768"/>
<path d="M109.198 368.822C109.336 368.845 109.478 368.834 109.611 368.79C109.743 368.746 109.864 368.67 109.961 368.569C110.057 368.468 110.128 368.345 110.167 368.21C110.206 368.076 110.211 367.934 110.182 367.796C107.913 357.651 102.854 349.858 98.9843 350.705C96.0993 351.334 96.0446 357.35 95.9762 363.476C95.9691 364.397 96.2942 365.289 96.8919 365.99C97.4896 366.691 98.3198 367.152 99.2304 367.291C100.598 367.619 102.156 367.92 103.77 368.179C105.684 368.439 107.503 368.644 109.198 368.822Z" fill="#E5DAAE"/>
<path d="M112.124 368.958C111.75 368.901 111.411 368.704 111.175 368.408C110.94 368.111 110.824 367.736 110.853 367.359C111.578 358.977 113.765 352.783 116.322 352.551C118.879 352.319 122.434 358.458 124.526 367.824C124.574 368.035 124.575 368.254 124.53 368.466C124.485 368.677 124.394 368.877 124.264 369.05C124.134 369.223 123.967 369.366 123.777 369.468C123.586 369.57 123.375 369.63 123.159 369.642C122.147 369.642 120.93 369.738 119.563 369.642C119.221 369.642 118.592 369.642 117.457 369.519C116.322 369.396 114.34 369.287 112.124 368.958Z" fill="#E5DAAE"/>
<path d="M170.002 381.701C170.002 381.701 170.002 381.633 170.002 381.606C169.783 377.066 171.027 372.404 174.432 371.543C178.356 370.558 183.36 376.506 185.589 388.141C185.618 388.254 185.621 388.372 185.598 388.487C185.574 388.601 185.525 388.708 185.454 388.8C185.383 388.893 185.291 388.968 185.187 389.019C185.082 389.071 184.967 389.098 184.851 389.098C181.188 388.995 177.571 388.259 174.158 386.924C172.667 386.341 171.429 385.252 170.658 383.848C170.315 383.177 170.093 382.45 170.002 381.701Z" fill="url(#paint1_radial_64_741)" stroke="#C4B587" stroke-miterlimit="10"/>
<path d="M109.184 368.822C109.322 368.846 109.464 368.835 109.596 368.791C109.729 368.747 109.849 368.671 109.945 368.569C110.041 368.468 110.11 368.344 110.147 368.209C110.184 368.075 110.187 367.933 110.155 367.796C107.885 357.651 102.84 349.858 98.957 350.705C96.072 351.334 96.0173 357.35 95.9626 363.476C95.9526 364.398 96.2767 365.292 96.8749 365.993C97.4731 366.694 98.305 367.155 99.2168 367.291C100.584 367.619 102.129 367.92 103.743 368.179C105.67 368.439 107.489 368.644 109.184 368.822Z" fill="url(#paint2_radial_64_741)" stroke="#C4B587" stroke-miterlimit="10"/>
<path d="M187.257 389.44C187.075 389.423 186.905 389.345 186.773 389.219C186.641 389.092 186.557 388.924 186.533 388.743C185.966 384.828 186.55 380.833 188.214 377.244C189.213 375.152 190.949 371.502 193.834 371.256C196.719 371.009 199.071 374.346 200.219 375.973C202.837 379.979 204 384.762 203.515 389.522C203.497 389.728 203.403 389.919 203.251 390.059C203.099 390.198 202.9 390.275 202.694 390.274C200.192 390.274 197.608 390.179 194.942 390.042C192.275 389.905 189.719 389.673 187.257 389.44Z" fill="url(#paint3_radial_64_741)" stroke="#C4B587" stroke-miterlimit="10"/>
<path d="M205.387 390.329C205.2 390.319 205.023 390.239 204.891 390.105C204.759 389.971 204.683 389.792 204.676 389.605C204.539 380.772 207.671 374.565 210.474 374.346C213.276 374.127 217.31 379.514 218.8 387.868C218.83 388.046 218.795 388.229 218.702 388.384C218.61 388.54 218.465 388.657 218.294 388.716C216.553 389.241 214.775 389.638 212.976 389.905C210.465 390.287 207.924 390.429 205.387 390.329V390.329Z" fill="url(#paint4_radial_64_741)" stroke="#C4B587" stroke-miterlimit="10"/>
<path d="M112.63 369.287C112.248 369.252 111.894 369.073 111.64 368.786C111.386 368.499 111.251 368.125 111.263 367.742C111.577 359.333 113.451 353.057 115.966 352.702C118.482 352.346 122.352 358.294 124.963 367.551C125.022 367.757 125.036 367.974 125.003 368.186C124.97 368.398 124.892 368.6 124.774 368.78C124.656 368.959 124.501 369.11 124.319 369.224C124.136 369.337 123.932 369.41 123.719 369.437C122.707 369.547 121.49 369.642 120.137 369.656C119.781 369.656 119.152 369.656 118.017 369.656C116.677 369.601 114.859 369.506 112.63 369.287Z" fill="url(#paint5_radial_64_741)" stroke="#C4B587" stroke-miterlimit="10"/>
<path d="M132.852 72.122C134.506 72.122 135.86 69.9754 135.86 67.3228C135.86 64.6703 134.493 62.5374 132.852 62.5374C131.211 62.5374 129.858 64.684 129.858 67.3228C129.858 69.9617 131.198 72.122 132.852 72.122Z" fill="#393F3B"/>
<path d="M62.4774 126.458C62.3817 127.825 61.2468 138.161 58.8267 138.421C56.0921 138.708 52.6192 127.647 52.4141 126.991" fill="#E7EAD6"/>
<path d="M62.4774 126.458C62.373 128.662 62.1033 130.856 61.6707 133.02C61.4803 134.115 61.192 135.19 60.8093 136.234C60.6199 136.772 60.3675 137.286 60.0573 137.765C59.8923 138.026 59.6788 138.254 59.4283 138.435C59.2892 138.534 59.1316 138.604 58.9649 138.642C58.7983 138.68 58.6258 138.684 58.4575 138.654C57.8638 138.488 57.3434 138.127 56.9808 137.628C56.6182 137.201 56.2934 136.744 56.0101 136.261C55.4428 135.304 54.9447 134.308 54.5197 133.28C53.6691 131.241 52.9654 129.144 52.4141 127.004C53.1934 129.069 53.9865 131.106 54.9025 133.103C55.3482 134.099 55.8551 135.067 56.4202 136.001C56.6919 136.485 57.0078 136.943 57.3637 137.368C57.6659 137.764 58.0805 138.06 58.5532 138.216C58.9771 138.326 59.3599 137.997 59.6471 137.574C59.9367 137.147 60.1754 136.688 60.3581 136.206C60.7362 135.183 61.0513 134.137 61.3015 133.075C61.7937 130.819 62.1766 128.645 62.4774 126.458Z" fill="#4D514E"/>
<path d="M51.156 128.468C51.156 129.014 51.033 133.581 48.859 134.141C46.3705 134.77 42.2822 130.764 42.0225 130.532" fill="#E7EAD6"/>
<path d="M51.1565 128.468C51.278 129.681 51.1667 130.906 50.8284 132.077C50.6648 132.695 50.3659 133.27 49.9533 133.758C49.7213 134.007 49.436 134.201 49.1187 134.324C48.8014 134.447 48.4603 134.497 48.1211 134.469C46.8784 134.283 45.7079 133.768 44.7302 132.979C43.7262 132.273 42.8084 131.452 41.9956 130.532C42.9244 131.294 43.8969 132.002 44.908 132.651C45.8619 133.319 46.9566 133.758 48.1074 133.936C49.256 134.086 49.9943 133.02 50.3908 131.954C50.7913 130.828 51.0486 129.657 51.1565 128.468V128.468Z" fill="#4D514E"/>
<path d="M41.5985 131.585C41.5985 132.091 40.7918 136.233 38.399 136.561C35.6644 136.93 31.8223 132.952 31.5625 132.72" fill="#E7EAD6"/>
<path d="M41.5985 131.585C41.5472 132.8 41.2199 133.988 40.6414 135.057C40.3358 135.606 39.9048 136.075 39.3834 136.425C38.8108 136.761 38.1352 136.878 37.4829 136.753C36.2743 136.493 35.1448 135.949 34.1877 135.167C33.2341 134.434 32.363 133.6 31.5898 132.679C32.4902 133.453 33.4353 134.175 34.4202 134.839C35.3632 135.506 36.4338 135.971 37.5649 136.206C38.0926 136.321 38.6443 136.233 39.11 135.96C39.5884 135.664 39.9873 135.255 40.2722 134.77C40.8843 133.788 41.3323 132.712 41.5985 131.585V131.585Z" fill="#4D514E"/>
<path d="M31.5765 134.238C31.4945 134.743 30.3459 138.845 27.9258 138.941C25.1912 139.064 21.7183 134.716 21.5132 134.456" fill="#E7EAD6"/>
<path d="M31.5765 134.238C31.4147 135.447 30.9849 136.606 30.3186 137.628C29.9913 138.196 29.5196 138.668 28.9513 138.995C28.3548 139.298 27.6652 139.361 27.0234 139.173C25.8426 138.792 24.7694 138.136 23.8923 137.259C22.9994 136.443 22.2055 135.526 21.5269 134.525C22.3503 135.385 23.2222 136.197 24.1384 136.958C25.0171 137.723 26.0399 138.304 27.1465 138.667C27.6719 138.827 28.238 138.783 28.7325 138.544C29.224 138.278 29.6528 137.909 29.9904 137.464C30.6885 136.48 31.224 135.391 31.5765 134.238V134.238Z" fill="#4D514E"/>
<path d="M21.4041 135.167C21.2674 135.728 19.6677 140.185 17.3022 140.075C14.5676 139.939 11.5869 134.743 11.4092 134.429" fill="#E7EAD6"/>
<path d="M21.4041 135.167C21.1226 136.423 20.6078 137.615 19.8864 138.681C19.5192 139.245 19.0223 139.714 18.4371 140.048C18.1236 140.214 17.7778 140.309 17.4237 140.328C17.0695 140.347 16.7155 140.289 16.3861 140.157C15.1959 139.629 14.1638 138.8 13.3918 137.751C12.6023 136.745 11.9281 135.654 11.3818 134.497C12.0872 135.544 12.8591 136.544 13.6926 137.491C14.4747 138.41 15.4444 139.152 16.5366 139.665C16.7947 139.78 17.0742 139.84 17.3569 139.84C17.6397 139.84 17.9192 139.78 18.1773 139.665C18.7093 139.372 19.1749 138.971 19.5446 138.489C20.308 137.469 20.9332 136.352 21.4041 135.167V135.167Z" fill="#4D514E"/>
<path d="M90.1645 125.446C87.5891 126.825 84.7304 127.593 81.8103 127.688C77.8937 127.813 73.9732 127.731 70.0652 127.442C67.6752 127.133 65.2692 126.964 62.8596 126.936C58.0548 127.04 53.2858 127.79 48.6807 129.165C46.3836 129.876 44.1002 130.751 41.7621 131.571C39.4159 132.415 37.0183 133.11 34.5838 133.649C29.7392 134.693 24.811 135.301 19.858 135.468C17.3546 135.54 14.8539 135.25 12.4336 134.607C11.2241 134.271 10.0685 133.764 9.00168 133.103C7.96498 132.423 7.06899 131.551 6.36279 130.532C7.97573 132.368 10.1644 133.602 12.5703 134.032C14.9506 134.47 17.3795 134.58 19.7897 134.36C22.2149 134.174 24.629 133.863 27.0227 133.431C29.4291 133.021 31.8082 132.542 34.16 131.954C36.5259 131.365 38.8582 130.648 41.1469 129.807C43.4166 128.987 45.6863 128.003 48.0927 127.264C50.4803 126.516 52.921 125.949 55.3941 125.569C57.8655 125.15 60.3666 124.931 62.8732 124.913C65.3675 124.93 67.8575 125.122 70.325 125.487C72.7177 125.835 75.1278 126.049 77.5443 126.129C79.9426 126.185 82.3409 126.021 84.709 125.637L87.8948 124.762C92.4206 123.477 94.0613 122.848 94.1434 123.039C94.2254 123.231 93.364 123.778 90.1645 125.446Z" fill="#618466"/>
<path d="M132.388 66.2284C132.599 66.2284 132.805 66.1659 132.98 66.0487C133.155 65.9315 133.292 65.765 133.373 65.5702C133.454 65.3753 133.475 65.1609 133.434 64.954C133.392 64.7472 133.291 64.5572 133.142 64.408C132.993 64.2589 132.803 64.1573 132.596 64.1162C132.389 64.075 132.174 64.0962 131.98 64.1769C131.785 64.2576 131.618 64.3943 131.501 64.5696C131.384 64.745 131.321 64.9512 131.321 65.1621C131.321 65.4449 131.434 65.7161 131.634 65.9161C131.834 66.1161 132.105 66.2284 132.388 66.2284V66.2284Z" fill="#E7EAD6"/>
<path d="M38.1532 90.9768C37.6689 90.4566 37.2975 89.8419 37.0622 89.1713C36.8269 88.5007 36.7328 87.7887 36.7859 87.08C36.8792 85.5598 37.5318 84.1279 38.618 83.0602C39.6888 81.9884 41.1125 81.3422 42.6242 81.2417C43.3369 81.1906 44.0526 81.2855 44.7273 81.5206C45.4021 81.7557 46.0217 82.1261 46.5484 82.609C45.3237 82.4594 44.0814 82.5618 42.8977 82.9098C41.8697 83.2407 40.9333 83.8073 40.1631 84.5642C39.3555 85.4052 38.7537 86.4219 38.405 87.5344C38.0563 88.647 37.9701 89.8253 38.1532 90.9768V90.9768Z" fill="#618466"/>
<path d="M234.237 191.171C236.808 187.999 234.237 181.696 228.536 177.115C222.834 172.535 216.093 171.373 213.495 174.559C210.898 177.744 213.495 184.034 219.197 188.614C224.899 193.195 231.667 194.357 234.237 191.171Z" fill="#669672"/>
<path d="M210.214 165.835C210.474 161.282 208.491 157.481 205.797 157.331C203.104 157.181 200.711 160.749 200.465 165.302C200.219 169.855 202.201 173.656 204.895 173.793C207.589 173.93 209.968 170.375 210.214 165.835Z" fill="#669672"/>
<path d="M242.305 201.466C242.537 199.361 239.953 197.365 236.562 196.996C233.171 196.627 230.218 198.062 229.999 200.167C229.78 202.273 232.351 204.269 235.755 204.624C239.16 204.98 242.14 203.572 242.305 201.466Z" fill="#669672"/>
<path d="M213.427 197.61C213.66 195.505 211.075 193.509 207.684 193.14C204.294 192.771 201.34 194.206 201.121 196.312C200.903 198.417 203.473 200.413 206.878 200.782C210.282 201.151 213.222 199.716 213.427 197.61Z" fill="#669672"/>
<path d="M243.344 190.377C244.615 189.844 244.97 187.752 244.123 185.702C243.275 183.651 241.539 182.407 240.254 182.967C238.969 183.528 238.627 185.592 239.475 187.643C240.322 189.694 242.058 190.897 243.344 190.377Z" fill="#669672"/>
<path d="M278.127 217.408C279.399 216.889 279.754 214.797 278.907 212.733C278.059 210.668 276.323 209.438 275.038 209.999C273.752 210.559 273.411 212.623 274.258 214.674C275.106 216.725 276.842 217.942 278.127 217.408Z" fill="#669672"/>
<path d="M195.05 165.096C196.035 164.686 196.294 163.087 195.638 161.514C194.982 159.942 193.669 158.985 192.685 159.382C191.701 159.778 191.441 161.391 192.097 162.963C192.754 164.536 194.066 165.452 195.05 165.096Z" fill="#669672"/>
<path d="M223.298 168.187C223.668 167.189 222.656 165.904 221.056 165.316C219.457 164.728 217.857 165.07 217.488 166.054C217.119 167.039 218.131 168.324 219.73 168.912C221.33 169.499 222.998 169.199 223.298 168.187Z" fill="#669672"/>
<path d="M223.955 199.156C224.707 198.417 224.338 196.831 223.121 195.628C221.904 194.425 220.387 194.043 219.58 194.794C218.774 195.546 219.211 197.119 220.414 198.335C221.617 199.552 223.203 199.908 223.955 199.156Z" fill="#669672"/>
<path d="M210.692 149.851C211.444 149.113 211.075 147.527 209.858 146.324C208.642 145.121 207.124 144.738 206.318 145.49C205.511 146.242 205.948 147.814 207.151 149.031C208.355 150.248 209.913 150.603 210.692 149.851Z" fill="#669672"/>
<path d="M199.849 128.563C200.082 126.881 199.412 125.391 198.373 125.254C197.334 125.118 196.281 126.362 196.049 127.989C195.816 129.616 196.486 131.16 197.539 131.297C198.591 131.434 199.617 130.258 199.849 128.563Z" fill="#669672"/>
<path d="M254.555 201.535C255.211 200.714 254.678 199.183 253.338 198.103C251.998 197.023 250.399 196.845 249.729 197.666C249.059 198.486 249.606 200.017 250.932 201.083C252.258 202.15 253.885 202.355 254.555 201.535Z" fill="#669672"/>
<path d="M235.154 224.328C237.779 222.646 237.465 217.491 234.443 212.774C231.421 208.057 226.827 205.637 224.202 207.305C221.577 208.973 221.905 214.141 224.927 218.858C227.948 223.576 232.57 226.009 235.154 224.328Z" fill="#669672"/>
<path d="M192.274 303.821C192.411 300.225 190.907 297.244 188.883 297.162C186.86 297.08 185.124 299.897 184.987 303.534C184.85 307.171 186.354 310.111 188.378 310.193C190.401 310.275 192.124 307.417 192.274 303.821Z" fill="#669672"/>
<path d="M199.111 306.391C199.207 304.258 198.291 302.481 197.101 302.44C195.912 302.399 194.859 304.081 194.777 306.227C194.695 308.374 195.597 310.137 196.787 310.178C197.976 310.219 199.029 308.538 199.111 306.391Z" fill="#669672"/>
<path d="M192.22 291.693C193.341 290.326 193.587 288.781 192.917 288.166C192.247 287.551 190.661 288.166 189.54 289.438C188.419 290.709 188.105 292.35 188.843 292.978C189.581 293.607 191.099 293.033 192.22 291.693Z" fill="#669672"/>
<path d="M110.879 310.028C112 308.661 112.315 307.116 111.577 306.487C110.838 305.858 109.321 306.487 108.186 307.772C107.051 309.057 106.819 310.684 107.502 311.299C108.186 311.915 109.704 311.395 110.879 310.028Z" fill="#669672"/>
<path d="M187.94 318.027C188.706 317.357 188.323 315.703 187.106 314.349C185.89 312.996 184.29 312.435 183.538 313.119C182.786 313.802 183.142 315.443 184.358 316.796C185.575 318.15 187.188 318.71 187.94 318.027Z" fill="#669672"/>
<path d="M210.186 308.88C210.815 308.305 210.514 306.938 209.503 305.817C208.491 304.696 207.151 304.231 206.522 304.792C205.894 305.352 206.194 306.733 207.206 307.854C208.218 308.975 209.544 309.44 210.186 308.88Z" fill="#669672"/>
<path d="M183.114 301.346C183.565 300.95 183.346 299.979 182.635 299.186C181.924 298.393 180.981 298.065 180.53 298.462C180.078 298.858 180.311 299.829 181.022 300.622C181.733 301.415 182.676 301.743 183.114 301.346Z" fill="#669672"/>
<path d="M194.845 297.723C195.214 297.381 195.036 296.561 194.421 295.891C193.806 295.221 193.054 294.948 192.658 295.276C192.261 295.604 192.466 296.424 193.068 297.108C193.669 297.791 194.476 298.01 194.845 297.723Z" fill="#669672"/>
<path d="M104.371 298.817C104.754 298.489 104.563 297.668 103.961 296.998C103.359 296.329 102.594 296.041 102.184 296.383C101.774 296.725 101.992 297.532 102.594 298.202C103.195 298.871 104.043 299.159 104.371 298.817Z" fill="#669672"/>
<path d="M192.07 314.035C192.576 314.035 192.945 313.255 192.904 312.353C192.863 311.451 192.425 310.74 191.92 310.754C191.414 310.767 191.045 311.533 191.086 312.435C191.127 313.337 191.55 314.048 192.07 314.035Z" fill="#669672"/>
<path d="M104.044 314.91C104.549 314.91 104.919 314.144 104.878 313.242C104.837 312.34 104.399 311.615 103.893 311.642C103.387 311.67 103.018 312.422 103.059 313.324C103.1 314.226 103.551 314.937 104.044 314.91Z" fill="#669672"/>
<path d="M204.69 300.047C206.194 298.94 205.798 295.864 203.815 293.211C201.833 290.558 198.975 289.246 197.471 290.353C195.967 291.461 196.363 294.551 198.36 297.19C200.356 299.829 203.186 301.169 204.69 300.047Z" fill="#669672"/>
<path d="M91.7377 48.8783C93.105 47.5111 92.2026 44.5714 89.8372 42.206C87.4717 39.8406 84.4637 38.9929 83.1511 40.3055C81.8385 41.6181 82.6725 44.6261 85.038 46.9915C87.4034 49.3569 90.3704 50.2456 91.7377 48.8783Z" fill="#669672"/>
<path d="M69.8601 54.1421C71.1452 51.0521 70.8034 47.9757 69.0671 47.3057C67.3309 46.6357 64.8974 48.4952 63.5986 51.5853C62.2998 54.6754 62.6553 57.7517 64.3915 58.4217C66.1278 59.0917 68.616 57.2322 69.8601 54.1421Z" fill="#669672"/>
<path d="M78.488 44.6937C78.9802 42.9301 78.488 41.2349 77.2439 40.9068C75.9998 40.5786 74.7284 41.7681 74.2362 43.5317C73.744 45.2953 74.2362 46.9905 75.4803 47.305C76.7244 47.6194 78.0642 46.4573 78.488 44.6937Z" fill="#669672"/>
<path d="M78.5431 60.6227C80.3341 60.2399 81.5919 58.9684 81.3458 57.779C81.0997 56.5896 79.4318 55.9334 77.6272 56.3162C75.8225 56.699 74.5785 57.9704 74.8929 59.1462C75.2073 60.3219 76.6975 60.9918 78.5431 60.6227Z" fill="#669672"/>
<path d="M90.37 38.418C92.6394 38.418 94.4714 37.2013 94.4714 35.6837C94.4714 34.1662 92.6394 32.9495 90.37 32.9495C88.1005 32.9495 86.2686 34.1662 86.2686 35.6837C86.2686 37.2013 88.1005 38.418 90.37 38.418Z" fill="#669672"/>
<path d="M81.7836 50.8604C82.1254 49.6299 81.7836 48.4679 80.9223 48.2491C80.061 48.0304 79.186 48.8233 78.8442 50.0537C78.5025 51.2842 78.8442 52.4462 79.7055 52.665C80.5668 52.8837 81.4418 52.0771 81.7836 50.8604Z" fill="#669672"/>
<path d="M57.1445 52.3645C57.2402 51.5305 56.2832 50.7376 55.0255 50.6008C53.7677 50.4641 52.6603 51.0247 52.5783 51.8586C52.4962 52.6926 53.4259 53.4855 54.6973 53.6222C55.9688 53.7589 57.0488 53.1984 57.1445 52.3645Z" fill="#669672"/>
<path d="M74.9201 54.2239C75.426 54.0325 75.6037 53.2669 75.3303 52.4877C75.0569 51.7084 74.4006 51.2572 73.9631 51.4486C73.5257 51.64 73.2659 52.4056 73.5393 53.1712C73.8128 53.9368 74.4006 54.4153 74.9201 54.2239Z" fill="#669672"/>
<path d="M81.4418 39.389C82.2621 39.3206 82.891 38.8284 82.809 38.2952C82.7269 37.7621 82.0707 37.3656 81.2504 37.4339C80.4302 37.5023 79.8833 37.9945 79.8833 38.5413C79.8833 39.0882 80.6352 39.4573 81.4418 39.389Z" fill="#669672"/>
<path d="M97.3161 43.0393C97.7809 42.3694 97.8083 41.5765 97.3161 41.262C96.8239 40.9476 96.1404 41.262 95.6619 41.9046C95.1834 42.5471 95.1697 43.3674 95.6619 43.6818C96.154 43.9963 96.8376 43.7092 97.3161 43.0393Z" fill="#669672"/>
<path d="M61.3152 50.9152C61.698 50.5324 61.5476 49.7531 60.9734 49.1653C60.3992 48.5774 59.6063 48.4407 59.2235 48.8235C58.8407 49.2063 58.9911 49.9856 59.5789 50.5598C60.1668 51.134 60.9324 51.298 61.3152 50.9152Z" fill="#669672"/>
<path d="M200.273 320.037C202.844 317.467 203.774 314.226 202.338 312.804C200.902 311.382 197.648 312.285 195.078 314.841C192.507 317.398 191.591 320.652 193.027 322.074C194.462 323.496 197.717 322.594 200.273 320.037Z" fill="#669672"/>
<path d="M99.5176 302.96C102.088 300.39 104.508 300.226 105.957 301.593C107.406 302.96 106.258 306.802 103.892 308.826C102.812 309.836 101.417 310.444 99.9414 310.549C99.6376 309.168 99.4546 307.763 99.3945 306.351C99.3496 305.219 99.3908 304.086 99.5176 302.96V302.96Z" fill="#669672"/>
<path d="M264.674 215.687C265.289 213.02 261.939 209.958 257.14 208.85C252.341 207.743 247.965 209.001 247.35 211.667C246.735 214.333 250.085 217.382 254.884 218.503C259.683 219.624 264.018 218.421 264.674 215.687Z" fill="#669672"/>
<path d="M198.811 189.927C202.092 187.507 201.231 180.766 196.869 174.887C192.508 169.007 186.3 166.191 183.005 168.625C179.71 171.058 180.585 177.785 184.947 183.665C189.308 189.544 195.516 192.361 198.811 189.927Z" fill="#669672"/>
<path d="M201.682 151.766C203.747 149.196 201.682 144.123 197.088 140.431C192.494 136.74 187.066 135.81 185.001 138.38C182.936 140.951 185.001 146.01 189.595 149.715C194.189 153.421 199.604 154.323 201.682 151.766Z" fill="#669672"/>
<path d="M162.332 211.585C163.466 214.743 164.683 219.939 162.236 224.191C158.407 230.809 147.674 231.287 144.967 231.82C133.03 234.186 130.528 231.752 125.264 235.143C121.613 237.563 116.213 243.032 116.349 249.158C116.431 253.259 118.797 257.703 117.033 260.52C116.559 261.23 115.88 261.778 115.085 262.091C114.291 262.404 113.42 262.466 112.589 262.27C109.855 261.709 108.692 257.826 108.487 256.801C107.257 251.961 108.487 248.201 107.434 247.872C106.6 247.585 104.632 250.525 103.428 253.341C101.528 257.826 102.061 257.443 100.133 260.561C99.544 261.338 98.685 261.866 97.7256 262.041C96.7662 262.215 95.7762 262.024 94.951 261.504C92.066 259.33 93.8162 253 94.3358 251.168C96.3457 243.921 101.172 239.983 100.174 238.862C99.176 237.741 94.035 242.157 91.6148 240.407C90.2475 239.382 90.2475 236.688 90.9449 234.938C91.6664 233.398 92.9188 232.17 94.4725 231.479C95.0604 231.159 95.6848 230.911 96.332 230.74C99.2011 230.126 102.146 229.941 105.069 230.193C109.691 230.686 112.945 227.637 117.881 224.943C124.396 221.533 131.567 219.56 138.91 219.159" fill="#73AB86"/>
<path d="M162.331 211.585C163.138 213.684 163.6 215.901 163.699 218.148C163.818 220.418 163.251 222.671 162.072 224.615C160.808 226.521 159.05 228.047 156.985 229.031C154.94 230.009 152.781 230.73 150.559 231.178C148.344 231.67 146.102 231.848 143.914 232.313C141.7 232.744 139.463 233.045 137.214 233.215C134.958 233.42 132.688 233.379 130.501 233.625C129.422 233.743 128.367 234.02 127.37 234.446C126.366 234.918 125.421 235.505 124.553 236.196C122.785 237.509 121.21 239.064 119.877 240.817C118.523 242.536 117.558 244.528 117.046 246.655C116.642 248.801 116.745 251.011 117.347 253.109C117.58 254.203 117.853 255.297 118.004 256.445C118.23 257.63 118.155 258.852 117.785 260C117.566 260.592 117.22 261.129 116.771 261.574C116.322 262.018 115.781 262.358 115.187 262.571C114.601 262.785 113.979 262.887 113.355 262.871C112.717 262.865 112.09 262.711 111.523 262.42C110.452 261.82 109.589 260.91 109.048 259.809C108.492 258.78 108.078 257.681 107.817 256.541C107.355 254.293 107.185 251.996 107.311 249.705C107.311 249.431 107.311 249.158 107.311 248.912C107.306 248.719 107.264 248.528 107.188 248.351C107.188 248.351 107.188 248.351 107.188 248.351C107.188 248.351 107.188 248.351 107.093 248.351C106.904 248.472 106.734 248.619 106.587 248.788C105.887 249.632 105.282 250.548 104.782 251.523C103.79 253.51 102.909 255.55 102.143 257.635C101.697 258.692 101.166 259.712 100.557 260.684C100.234 261.255 99.7612 261.728 99.1895 262.051C98.6368 262.358 98.0273 262.549 97.3984 262.612C96.7684 262.682 96.1306 262.622 95.5252 262.434C95.2106 262.335 94.9115 262.192 94.6364 262.01C94.373 261.817 94.1301 261.597 93.9118 261.354C93.1776 260.357 92.7671 259.159 92.7359 257.922C92.6814 255.604 93.0142 253.294 93.7203 251.085C94.3712 248.889 95.2897 246.782 96.4549 244.81C97.0155 243.812 97.6308 242.868 98.2461 241.938L99.1622 240.571C99.4509 240.159 99.6553 239.695 99.7638 239.204C99.7638 239.122 99.7638 239.204 99.6681 239.204C99.4405 239.206 99.2146 239.243 98.9981 239.313C98.5196 239.477 98 239.71 97.4941 239.928C96.4556 240.43 95.376 240.842 94.2673 241.159C93.6657 241.32 93.0378 241.357 92.4214 241.268C91.7517 241.169 91.1478 240.81 90.7396 240.27C90.0862 239.223 89.8292 237.977 90.015 236.756C90.1227 235.561 90.5527 234.418 91.2592 233.448C91.9998 232.52 92.9328 231.764 93.9938 231.233C95.0128 230.665 96.1235 230.281 97.2753 230.098C98.3962 229.9 99.529 229.776 100.666 229.729C101.8 229.667 102.937 229.667 104.071 229.729C105.165 229.865 106.272 229.865 107.366 229.729C109.526 229.265 111.577 228.392 113.409 227.158C115.324 226.01 117.252 224.82 119.302 223.849C121.336 222.88 123.438 222.061 125.592 221.402C129.907 220.108 134.358 219.319 138.855 219.05C134.378 219.395 129.958 220.272 125.688 221.662C123.559 222.355 121.484 223.205 119.48 224.205C117.484 225.203 115.597 226.406 113.683 227.596C111.809 228.907 109.695 229.836 107.462 230.33C106.323 230.48 105.169 230.48 104.03 230.33C102.922 230.33 101.815 230.33 100.694 230.33C99.5877 230.382 98.4867 230.51 97.3984 230.713C96.3234 230.887 95.2898 231.258 94.3493 231.807C93.3964 232.296 92.5612 232.986 91.9018 233.83C91.2846 234.688 90.9199 235.702 90.849 236.756C90.6953 237.772 90.9086 238.81 91.4506 239.682C91.7841 240.029 92.2153 240.266 92.6868 240.361C93.1583 240.456 93.6476 240.406 94.0895 240.216C95.14 239.905 96.1641 239.512 97.1523 239.04C97.673 238.792 98.207 238.572 98.752 238.383C99.0736 238.275 99.4107 238.219 99.7501 238.219C99.9995 238.237 100.236 238.338 100.42 238.506C100.513 238.599 100.585 238.711 100.632 238.833C100.679 238.956 100.7 239.086 100.694 239.217C100.588 239.851 100.335 240.45 99.9552 240.968L99.0255 242.335C98.4238 243.265 97.8086 244.208 97.2753 245.165C96.1771 247.076 95.3184 249.115 94.7185 251.236C94.0591 253.326 93.7496 255.512 93.8024 257.703C93.8181 258.725 94.1474 259.718 94.7458 260.547C95.0694 260.901 95.477 261.169 95.931 261.324C96.385 261.479 96.8709 261.518 97.3437 261.436C97.8231 261.417 98.291 261.283 98.7076 261.045C99.1241 260.807 99.4771 260.472 99.7364 260.069C100.313 259.138 100.816 258.165 101.24 257.156C102.039 255.03 102.951 252.949 103.975 250.921C104.518 249.887 105.179 248.919 105.944 248.036C106.169 247.793 106.427 247.581 106.71 247.407C106.918 247.278 107.162 247.216 107.407 247.23C107.552 247.245 107.693 247.292 107.818 247.368C107.943 247.443 108.05 247.546 108.132 247.667C108.309 247.996 108.407 248.361 108.419 248.734C108.419 249.035 108.419 249.322 108.419 249.622C108.29 251.821 108.446 254.027 108.884 256.185C109.105 257.241 109.478 258.259 109.991 259.207C110.44 260.136 111.154 260.911 112.042 261.436C112.49 261.641 112.975 261.756 113.468 261.772C113.961 261.789 114.452 261.707 114.913 261.532C115.38 261.372 115.806 261.11 116.158 260.764C116.511 260.419 116.782 259.999 116.951 259.535C117.265 258.536 117.326 257.474 117.128 256.445C116.978 255.365 116.732 254.271 116.5 253.177C116.239 252.066 116.056 250.937 115.953 249.8C115.868 248.632 115.956 247.457 116.212 246.314C116.734 244.128 117.712 242.078 119.084 240.298C120.483 238.484 122.136 236.881 123.992 235.539C124.916 234.856 125.911 234.274 126.959 233.803C128.032 233.355 129.166 233.069 130.323 232.955C132.606 232.737 134.835 232.805 137.077 232.627C139.306 232.483 141.525 232.209 143.722 231.807C145.951 231.383 148.193 231.205 150.381 230.768C152.575 230.367 154.71 229.696 156.739 228.771C158.77 227.855 160.511 226.398 161.771 224.56C162.97 222.672 163.571 220.465 163.494 218.23C163.492 215.964 163.099 213.716 162.331 211.585V211.585Z" fill="#588766"/>
<path d="M162.331 211.585C163.11 213.598 163.571 215.72 163.698 217.874C163.834 220.048 163.361 222.217 162.331 224.136C161.234 226.011 159.652 227.556 157.751 228.607C155.858 229.647 153.835 230.429 151.735 230.932C149.636 231.423 147.514 231.806 145.377 232.08C143.257 232.49 141.124 232.887 138.991 233.106C136.858 233.324 134.684 233.434 132.538 233.53C130.381 233.501 128.252 234.013 126.344 235.02C124.495 236.112 122.818 237.471 121.367 239.053C119.904 240.623 118.72 242.431 117.867 244.399C117.458 245.387 117.168 246.42 117.005 247.476C116.862 248.538 116.862 249.614 117.005 250.675C117.32 252.795 117.894 254.887 118.195 257.033C118.327 258.126 118.186 259.235 117.785 260.26C117.327 261.287 116.503 262.106 115.474 262.557C114.453 263.023 113.3 263.111 112.221 262.805C111.142 262.5 110.206 261.82 109.581 260.889C108.347 259.074 107.578 256.985 107.338 254.804C107.197 253.73 107.124 252.648 107.12 251.564C107.178 250.543 107.155 249.519 107.051 248.501V248.501C107.063 248.473 107.081 248.448 107.105 248.429C107.129 248.409 107.158 248.397 107.188 248.392V248.392H107.12L107.311 248.611L107.229 248.693H107.12C106.459 249.272 105.904 249.961 105.479 250.73C105.004 251.49 104.58 252.28 104.207 253.095C103.442 254.736 102.84 256.432 102.143 258.113C101.781 258.953 101.361 259.766 100.885 260.547C100.479 261.405 99.7879 262.096 98.9295 262.502C98.0753 262.896 97.1282 263.042 96.1949 262.926C95.7182 262.873 95.2549 262.734 94.8276 262.516C94.4286 262.265 94.0613 261.966 93.7338 261.627C92.6072 259.894 92.1864 257.795 92.5579 255.762C92.8134 253.765 93.2716 251.8 93.9252 249.896C94.566 247.984 95.4191 246.149 96.4684 244.427L98.0545 241.884C98.6123 241.124 99.0717 240.297 99.4218 239.423V239.505C99.4096 239.46 99.4096 239.413 99.4218 239.368C99.4218 239.368 99.4218 239.368 99.4218 239.3C99.4218 239.231 99.4218 239.3 99.4218 239.3C99.4207 239.333 99.4275 239.367 99.4418 239.398C99.456 239.429 99.4773 239.456 99.5038 239.477C99.6269 239.546 99.6132 239.477 99.6132 239.477H99.5311C98.8805 239.621 98.2477 239.837 97.6443 240.12C97.0016 240.393 96.359 240.694 95.7027 240.954C95.0465 241.296 94.3277 241.502 93.5897 241.558C92.8517 241.615 92.11 241.521 91.4094 241.282C90.7251 240.919 90.2063 240.307 89.96 239.573C89.705 238.878 89.5888 238.139 89.6182 237.399C89.6325 235.922 90.1109 234.487 90.9855 233.297C91.9338 232.201 93.1016 231.315 94.4134 230.698C95.7253 230.081 97.152 229.746 98.6014 229.715C101.336 229.195 104.358 229.715 107.024 229.564C109.69 229.414 112.151 227.568 114.558 226.146C116.968 224.646 119.508 223.365 122.146 222.318C127.46 220.314 133.048 219.129 138.718 218.804V219.488C134.298 219.818 129.933 220.672 125.715 222.031C123.606 222.708 121.549 223.54 119.562 224.519C117.592 225.533 115.676 226.647 113.819 227.855C111.946 229.123 109.863 230.049 107.667 230.59C106.544 230.797 105.396 230.834 104.262 230.699C103.168 230.699 102.061 230.699 100.953 230.699C98.7648 230.699 96.5984 231.136 94.5815 231.985C93.6107 232.458 92.7456 233.123 92.0383 233.94C91.392 234.796 91.0117 235.823 90.9445 236.893C90.855 237.403 90.872 237.927 90.9943 238.43C91.1167 238.934 91.3418 239.407 91.6555 239.819C91.8454 239.973 92.0642 240.087 92.2991 240.156C92.5339 240.224 92.78 240.244 93.0228 240.216C93.5549 240.161 94.0784 240.042 94.5815 239.86C95.6207 239.505 96.5915 238.999 97.6579 238.589C98.1781 238.331 98.737 238.16 99.3124 238.083C99.6481 238.055 99.984 238.136 100.269 238.315C100.408 238.418 100.522 238.549 100.605 238.7C100.688 238.851 100.736 239.018 100.748 239.19C100.714 239.799 100.51 240.386 100.16 240.886C99.873 241.364 99.5448 241.829 99.244 242.253L97.4802 245.069C96.3757 247.008 95.5256 249.08 94.9507 251.236C94.2624 253.336 93.9207 255.534 93.9389 257.744C93.9278 258.819 94.2741 259.868 94.9233 260.725C95.3072 261.082 95.7804 261.329 96.293 261.44C96.8056 261.551 97.3386 261.521 97.8357 261.354C98.3548 261.241 98.8299 260.98 99.203 260.602C99.5254 260.169 99.8134 259.712 100.064 259.234C100.608 258.279 101.065 257.277 101.432 256.24C102.158 254.129 103.073 252.088 104.166 250.142C104.713 249.142 105.441 248.251 106.313 247.517C106.567 247.331 106.873 247.231 107.188 247.23C107.352 247.235 107.512 247.276 107.658 247.349C107.805 247.422 107.933 247.526 108.036 247.654C108.344 248.162 108.479 248.757 108.419 249.349C108.305 251.567 108.434 253.79 108.801 255.98C108.999 257.065 109.354 258.115 109.854 259.098C110.304 260.095 111.048 260.93 111.987 261.49C112.478 261.709 113.01 261.816 113.547 261.804C114.083 261.792 114.611 261.662 115.091 261.422C115.573 261.179 115.989 260.821 116.301 260.38C116.613 259.939 116.813 259.428 116.882 258.893C117.021 257.799 116.946 256.69 116.663 255.625C116.458 254.531 116.226 253.451 116.062 252.343C115.841 251.244 115.708 250.128 115.665 249.007C115.678 247.883 115.844 246.765 116.157 245.685C116.821 243.539 117.909 241.549 119.357 239.833C120.766 238.092 122.414 236.56 124.252 235.28C125.163 234.629 126.145 234.084 127.178 233.653C128.226 233.248 129.326 232.995 130.446 232.901C132.674 232.696 134.903 232.764 137.118 232.586L143.75 231.779C145.937 231.356 148.166 231.192 150.354 230.754C152.543 230.362 154.675 229.696 156.698 228.771C158.744 227.861 160.499 226.404 161.771 224.56C162.968 222.667 163.564 220.455 163.48 218.216C163.485 215.956 163.096 213.712 162.331 211.585V211.585ZM162.331 211.585C163.102 213.679 163.513 215.889 163.548 218.12C163.63 220.368 163.035 222.587 161.839 224.492C160.568 226.346 158.814 227.817 156.766 228.744C154.737 229.669 152.602 230.339 150.408 230.74C148.221 231.192 145.992 231.356 143.804 231.793L137.173 232.627C134.944 232.805 132.715 232.737 130.5 232.955C129.398 233.048 128.316 233.301 127.287 233.707C126.266 234.139 125.294 234.68 124.389 235.321C122.572 236.596 120.943 238.119 119.548 239.846C118.091 241.582 117.002 243.597 116.349 245.767C116.04 246.824 115.879 247.919 115.87 249.021C115.925 250.128 116.062 251.229 116.281 252.316C116.445 253.41 116.691 254.504 116.896 255.598C117.181 256.695 117.255 257.836 117.115 258.961C117.044 259.539 116.832 260.09 116.498 260.567C116.165 261.044 115.719 261.431 115.2 261.696C114.681 261.958 114.11 262.101 113.528 262.115C112.946 262.13 112.368 262.014 111.837 261.778C110.851 261.193 110.068 260.32 109.594 259.275C109.074 258.272 108.701 257.199 108.487 256.09C108.13 253.853 108.015 251.583 108.145 249.322C108.199 248.798 108.084 248.271 107.817 247.818C107.74 247.727 107.645 247.652 107.538 247.599C107.432 247.546 107.315 247.516 107.196 247.509C107.077 247.503 106.958 247.521 106.846 247.562C106.734 247.603 106.632 247.667 106.545 247.749C105.715 248.457 105.02 249.309 104.494 250.265C103.409 252.201 102.494 254.228 101.76 256.322C101.391 257.38 100.934 258.404 100.393 259.385C100.127 259.892 99.8204 260.377 99.4765 260.834C99.0601 261.256 98.5347 261.555 97.9588 261.696C97.3943 261.884 96.7891 261.915 96.2084 261.785C95.6277 261.655 95.0935 261.369 94.6636 260.957C93.9464 260.034 93.5568 258.899 93.5561 257.73C93.5346 255.476 93.8762 253.232 94.5678 251.085C95.2105 248.925 96.1296 246.857 97.3024 244.933L99.0663 242.089C99.72 241.26 100.186 240.299 100.434 239.272C100.423 239.163 100.389 239.057 100.334 238.962C100.279 238.867 100.204 238.785 100.115 238.722C100.025 238.658 99.9232 238.615 99.8155 238.594C99.7077 238.573 99.5967 238.576 99.4901 238.602C98.9614 238.677 98.4486 238.839 97.9724 239.081C96.9606 239.464 95.9625 239.997 94.8823 240.366C94.3406 240.566 93.7753 240.694 93.2006 240.749C92.8889 240.785 92.5731 240.757 92.2723 240.668C91.9715 240.579 91.692 240.429 91.4504 240.229C91.0787 239.765 90.8077 239.229 90.6547 238.655C90.5017 238.08 90.47 237.48 90.5617 236.893C90.6397 235.723 91.0579 234.602 91.7649 233.666C92.5224 232.784 93.4532 232.068 94.4995 231.561C96.5923 230.669 98.8422 230.204 101.117 230.193C102.238 230.193 103.36 230.193 104.481 230.193C105.564 230.329 106.663 230.292 107.735 230.084C109.864 229.532 111.878 228.606 113.683 227.349C115.55 226.123 117.481 224.996 119.466 223.972C121.476 222.971 123.555 222.116 125.688 221.415C129.957 220.042 134.371 219.165 138.841 218.804V219.488C133.229 219.787 127.695 220.945 122.433 222.919C119.843 223.929 117.349 225.169 114.982 226.625C112.575 227.992 110.141 229.701 107.215 230.098C104.289 230.289 101.568 229.715 98.7791 230.221C97.3947 230.28 96.0326 230.59 94.7593 231.137C93.5048 231.686 92.3954 232.519 91.5188 233.571C90.7154 234.677 90.2758 236.005 90.2609 237.372C90.1745 238.024 90.2691 238.689 90.5344 239.291C90.7996 239.894 91.2252 240.412 91.7649 240.79C92.4034 240.998 93.0772 241.076 93.7465 241.02C94.4157 240.963 95.0669 240.774 95.6617 240.462C96.3043 240.216 96.9333 239.915 97.6033 239.641C98.2655 239.309 98.9761 239.082 99.7089 238.971H99.8183C99.8592 238.967 99.9004 238.967 99.9413 238.971C99.9679 238.993 99.9891 239.02 100.003 239.051C100.018 239.081 100.024 239.115 100.023 239.149V239.217V239.149V239.245C99.8965 239.769 99.6639 240.263 99.3397 240.694L98.5193 241.952L96.9333 244.468C95.881 246.166 95.0233 247.978 94.3764 249.869C93.7295 251.737 93.2714 253.665 93.0091 255.625C92.6489 257.552 93.0298 259.545 94.0756 261.203V261.203C94.6817 261.823 95.4686 262.236 96.3235 262.381C97.1784 262.525 98.0572 262.396 98.8338 262.01C99.6316 261.643 100.272 261.003 100.639 260.205C101.099 259.437 101.514 258.643 101.883 257.826C102.58 256.172 103.25 254.449 103.961 252.808C104.365 251.977 104.821 251.174 105.328 250.402C105.782 249.585 106.379 248.858 107.092 248.255H107.188L107.106 248.337L107.297 248.556H107.188H107.106C107.136 248.551 107.165 248.538 107.189 248.519C107.213 248.5 107.231 248.475 107.243 248.447C107.243 248.365 107.243 248.447 107.243 248.378C107.353 248.656 107.405 248.954 107.393 249.253C107.393 249.527 107.393 249.8 107.393 250.074V251.687C107.388 252.757 107.452 253.825 107.585 254.887C107.835 257.016 108.61 259.051 109.841 260.807C110.419 261.696 111.299 262.347 112.318 262.64C113.338 262.934 114.429 262.851 115.392 262.407C116.363 261.989 117.144 261.223 117.579 260.26C117.97 259.275 118.107 258.208 117.976 257.156C117.689 255.023 117.115 252.945 116.814 250.798C116.67 249.718 116.67 248.624 116.814 247.544C116.98 246.462 117.284 245.405 117.716 244.399C118.582 242.382 119.795 240.531 121.299 238.93C122.758 237.316 124.455 235.933 126.33 234.829C128.259 233.814 130.413 233.301 132.592 233.338C134.753 233.242 136.899 233.174 139.046 232.942C141.193 232.709 143.298 232.326 145.418 231.93C147.537 231.533 149.697 231.342 151.776 230.795C153.874 230.307 155.898 229.539 157.792 228.512C159.688 227.465 161.266 225.924 162.358 224.054C163.389 222.145 163.863 219.985 163.726 217.82C163.578 215.683 163.108 213.581 162.331 211.585V211.585Z" fill="#618466"/>
<defs>
<radialGradient id="paint0_radial_64_741" cx="0" cy="0" r="1" gradientUnits="userSpaceOnUse" gradientTransform="translate(85.2539 256.123) scale(216.482 213.649)">
<stop stop-color="#EDE6D3"/>
<stop offset="0.38" stop-color="#E5DAAE"/>
<stop offset="1" stop-color="#D3C797"/>
</radialGradient>
<radialGradient id="paint1_radial_64_741" cx="0" cy="0" r="1" gradientUnits="userSpaceOnUse" gradientTransform="translate(177.391 376.347) scale(8.31864 8.31854)">
<stop stop-color="#EFE8CA"/>
<stop offset="1" stop-color="#E5DAAE"/>
</radialGradient>
<radialGradient id="paint2_radial_64_741" cx="0" cy="0" r="1" gradientUnits="userSpaceOnUse" gradientTransform="translate(96.0693 355.885) scale(8.36787 8.36776)">
<stop stop-color="#F2EDD7"/>
<stop offset="1" stop-color="#E5DAAE"/>
</radialGradient>
<radialGradient id="paint3_radial_64_741" cx="0" cy="0" r="1" gradientUnits="userSpaceOnUse" gradientTransform="translate(-7514.14 -54116.7) scale(114.597 126.067)">
<stop stop-color="#EFE8CA"/>
<stop offset="1" stop-color="#E5DAAE"/>
</radialGradient>
<radialGradient id="paint4_radial_64_741" cx="0" cy="0" r="1" gradientUnits="userSpaceOnUse" gradientTransform="translate(-4407.66 -37434.5) scale(77.8754 88.2431)">
<stop stop-color="#EFE8CA"/>
<stop offset="1" stop-color="#E5DAAE"/>
</radialGradient>
<radialGradient id="paint5_radial_64_741" cx="0" cy="0" r="1" gradientUnits="userSpaceOnUse" gradientTransform="translate(116.444 360.338) rotate(-2.82148) scale(7.74967)">
<stop stop-color="#EFE9D3"/>
<stop offset="1" stop-color="#E5DAAE"/>
</radialGradient>
</defs>
</svg>
