<svg width="482" height="217" viewBox="0 0 482 217" fill="none" xmlns="http://www.w3.org/2000/svg">
<g clip-path="url(#clip0_344_116)">
<path d="M47.2895 201.69C47.9095 201.69 48.4395 201.92 48.8895 202.37C49.3395 202.82 49.5695 203.35 49.5695 203.97V212.91C49.5695 213.53 49.3395 214.06 48.8895 214.51C48.4395 214.96 47.9095 215.19 47.2895 215.19H7.28953C6.66953 215.19 6.13953 214.97 5.68953 214.51C5.23953 214.06 5.01953 213.53 5.01953 212.91V158.4C5.01953 157.78 5.23953 157.25 5.68953 156.8C6.13953 156.35 6.66953 156.12 7.28953 156.12H46.6095C47.2295 156.12 47.7595 156.35 48.2095 156.8C48.6595 157.25 48.8795 157.78 48.8795 158.4V167.34C48.8795 167.96 48.6495 168.49 48.2095 168.94C47.7595 169.39 47.2295 169.61 46.6095 169.61H20.6195V178.72H44.7495C45.3695 178.72 45.8995 178.95 46.3495 179.4C46.7995 179.85 47.0295 180.38 47.0295 181V189.94C47.0295 190.56 46.7995 191.09 46.3495 191.54C45.8995 191.99 45.3695 192.22 44.7495 192.22H20.6195V201.67H47.2895V201.69Z" fill="#363940"/>
<path d="M84.4093 156.13C88.1193 156.13 91.4393 156.52 94.3693 157.31C97.2893 158.1 99.7793 159.28 101.839 160.85C103.889 162.42 105.469 164.44 106.569 166.88C107.669 169.33 108.219 172.18 108.219 175.45C108.219 179.67 107.349 183.17 105.599 185.96C103.859 188.74 101.379 190.87 98.1693 192.33L108.629 212.41C108.799 212.75 108.879 213.06 108.879 213.34C108.879 213.85 108.699 214.28 108.329 214.65C107.959 215.02 107.529 215.2 107.019 215.2H95.5493C94.4193 215.2 93.6193 214.95 93.1493 214.44C92.6693 213.93 92.2893 213.43 92.0093 212.92L82.6393 194.86H74.8793V212.92C74.8793 213.54 74.6493 214.07 74.1993 214.52C73.7493 214.97 73.2193 215.2 72.5993 215.2H61.5493C60.9293 215.2 60.3993 214.98 59.9493 214.52C59.4993 214.07 59.2793 213.54 59.2793 212.92V158.41C59.2793 157.79 59.4993 157.26 59.9493 156.81C60.3993 156.36 60.9293 156.13 61.5493 156.13H84.4093ZM74.8793 181.7H84.4093C86.7693 181.7 88.7293 181.25 90.2693 180.35C91.8193 179.45 92.5893 177.82 92.5893 175.46C92.5893 173.1 91.8193 171.47 90.2693 170.57C88.7193 169.67 86.7693 169.22 84.4093 169.22H74.8793V181.7Z" fill="#363940"/>
<path d="M143.06 156.13C146.77 156.13 150.09 156.52 153.02 157.31C155.94 158.1 158.43 159.28 160.49 160.85C162.54 162.42 164.12 164.44 165.22 166.88C166.32 169.33 166.87 172.18 166.87 175.45C166.87 179.67 166 183.17 164.25 185.96C162.51 188.74 160.03 190.87 156.82 192.33L167.28 212.41C167.45 212.75 167.53 213.06 167.53 213.34C167.53 213.85 167.35 214.28 166.98 214.65C166.61 215.02 166.18 215.2 165.67 215.2H154.2C153.07 215.2 152.27 214.95 151.8 214.44C151.32 213.93 150.94 213.43 150.66 212.92L141.29 194.86H133.53V212.92C133.53 213.54 133.3 214.07 132.85 214.52C132.4 214.97 131.87 215.2 131.25 215.2H120.2C119.58 215.2 119.05 214.98 118.6 214.52C118.15 214.07 117.93 213.54 117.93 212.92V158.41C117.93 157.79 118.15 157.26 118.6 156.81C119.05 156.36 119.58 156.13 120.2 156.13H143.06ZM133.52 181.7H143.05C145.41 181.7 147.37 181.25 148.91 180.35C150.46 179.45 151.23 177.82 151.23 175.46C151.23 173.1 150.46 171.47 148.91 170.57C147.36 169.67 145.41 169.22 143.05 169.22H133.52V181.7Z" fill="#363940"/>
<path d="M174.619 178.15C174.789 175 175.479 172.03 176.689 169.25C177.899 166.47 179.609 164.05 181.839 161.99C184.059 159.94 186.759 158.31 189.939 157.1C193.119 155.89 196.789 155.29 200.949 155.29C205.059 155.29 208.709 155.89 211.919 157.1C215.129 158.31 217.839 159.94 220.059 161.99C222.279 164.04 223.999 166.46 225.209 169.25C226.419 172.03 227.109 175 227.279 178.15C227.389 180.57 227.449 183.1 227.449 185.74C227.449 188.38 227.389 190.86 227.279 193.17C227.109 196.32 226.419 199.29 225.209 202.07C223.999 204.85 222.279 207.29 220.059 209.37C217.839 211.45 215.119 213.08 211.919 214.26C208.709 215.44 205.059 216.03 200.949 216.03C196.789 216.03 193.119 215.44 189.939 214.26C186.759 213.08 184.059 211.45 181.839 209.37C179.619 207.29 177.899 204.86 176.689 202.07C175.479 199.29 174.789 196.32 174.619 193.17C174.509 190.86 174.449 188.39 174.449 185.74C174.449 183.1 174.499 180.57 174.619 178.15ZM211.659 192.75C211.719 191.74 211.769 190.61 211.829 189.37C211.889 188.13 211.909 186.87 211.909 185.57C211.909 184.28 211.879 183.03 211.829 181.82C211.769 180.61 211.719 179.53 211.659 178.57C211.549 177.16 211.249 175.87 210.769 174.69C210.289 173.51 209.619 172.48 208.739 171.61C207.869 170.74 206.779 170.05 205.489 169.54C204.199 169.03 202.679 168.78 200.929 168.78C199.189 168.78 197.669 169.03 196.369 169.54C195.079 170.05 193.989 170.74 193.119 171.61C192.249 172.48 191.569 173.51 191.089 174.69C190.609 175.87 190.319 177.17 190.199 178.57C190.089 179.53 190.019 180.61 189.989 181.82C189.959 183.03 189.949 184.28 189.949 185.57C189.949 186.87 189.959 188.13 189.989 189.37C190.019 190.61 190.089 191.73 190.199 192.75C190.419 195.56 191.389 197.9 193.109 199.75C194.829 201.61 197.429 202.53 200.919 202.53C204.409 202.53 206.999 201.6 208.679 199.75C210.359 197.9 211.379 195.56 211.659 192.75Z" fill="#363940"/>
<path d="M341.519 215.2C340.899 215.2 340.369 214.98 339.919 214.52C339.469 214.07 339.239 213.54 339.239 212.92V204.31H312.659C312.039 204.31 311.509 204.09 311.059 203.63C310.609 203.18 310.379 202.65 310.379 202.03V193.09C310.379 191.63 310.739 190.42 311.479 189.46L336.709 157.65C337.219 157.03 337.679 156.62 338.099 156.43C338.519 156.23 339.099 156.13 339.829 156.13H352.569C353.189 156.13 353.719 156.36 354.169 156.81C354.619 157.26 354.849 157.79 354.849 158.41V190.81H362.109C362.729 190.81 363.259 191.04 363.709 191.49C364.159 191.94 364.389 192.47 364.389 193.09V202.03C364.389 202.65 364.159 203.18 363.709 203.63C363.259 204.08 362.729 204.31 362.109 204.31H354.849V212.92C354.849 213.54 354.619 214.07 354.169 214.52C353.719 214.97 353.189 215.2 352.569 215.2H341.519ZM339.669 190.81V175.28L327.349 190.81H339.669Z" fill="#363940"/>
<path d="M458.89 215.2C458.27 215.2 457.74 214.98 457.29 214.52C456.84 214.07 456.61 213.54 456.61 212.92V204.31H430.03C429.41 204.31 428.88 204.09 428.43 203.63C427.98 203.18 427.75 202.65 427.75 202.03V193.09C427.75 191.63 428.11 190.42 428.85 189.46L454.08 157.65C454.59 157.03 455.05 156.62 455.47 156.43C455.89 156.23 456.47 156.13 457.2 156.13H469.94C470.56 156.13 471.09 156.36 471.54 156.81C471.99 157.26 472.22 157.79 472.22 158.41V190.81H479.48C480.1 190.81 480.63 191.04 481.08 191.49C481.53 191.94 481.76 192.47 481.76 193.09V202.03C481.76 202.65 481.53 203.18 481.08 203.63C480.63 204.08 480.1 204.31 479.48 204.31H472.22V212.92C472.22 213.54 471.99 214.07 471.54 214.52C471.09 214.97 470.56 215.2 469.94 215.2H458.89ZM457.04 190.81V175.28L444.72 190.81H457.04Z" fill="#363940"/>
<path d="M73.6504 64.6901L78.2904 54.5401C79.7404 51.3701 83.0004 50.19 85.5804 51.91L93.9404 57.5001L73.6804 64.8001" fill="#588766"/>
<path d="M91.2891 58.33L99.6291 47.56C102.239 44.19 106.449 43.7 109.029 46.47L117.409 55.45L91.2891 58.49" fill="#588766"/>
<path d="M114.57 53.77L126.67 47.89C130.45 46.05 134.39 47.46 135.47 51.04L138.96 62.65L114.51 53.9" fill="#588766"/>
<path d="M143.399 62.17L143.359 48.72C143.349 44.51 146.329 41.58 150.019 42.17L161.999 44.07L143.499 62.29" fill="#588766"/>
<path d="M158.85 43.48L161.31 30.1C162.08 25.92 165.58 23.55 169.14 24.82L180.69 28.94L158.92 43.61" fill="#588766"/>
<path d="M179.721 29.55L184.891 16.38C186.511 12.26 190.561 10.54 193.941 12.55L204.921 19.05L179.771 29.7" fill="#588766"/>
<path d="M201.74 21.18L207.63 8.31001C209.47 4.28001 213.61 2.79001 216.88 4.98001L227.48 12.08L201.78 21.34" fill="#588766"/>
<path d="M225.68 13.61L234.79 2.77998C237.64 -0.610024 242.03 -0.940024 244.59 2.03998L252.91 11.71L225.67 13.77" fill="#588766"/>
<path d="M249.761 11.82L260.781 2.93998C264.231 0.159975 268.601 0.679975 270.541 4.08998L276.851 15.18L249.721 11.97" fill="#588766"/>
<path d="M274.4 14.97L286.56 7.74005C290.36 5.48005 294.62 6.61005 296.06 10.26L300.74 22.13L274.34 15.12" fill="#588766"/>
<path d="M297.89 22.6701L310.51 16.2701C314.46 14.2701 318.62 15.6801 319.82 19.4201L323.7 31.5801L297.83 22.8101" fill="#588766"/>
<path d="M321.78 31.28L335.71 28.77C340.07 27.98 343.65 30.53 343.72 34.46L343.94 47.22L321.68 31.4" fill="#588766"/>
<path d="M337.84 46.05L351.71 44.76C356.05 44.36 359.35 47.16 359.09 51.02L358.24 63.55L337.73 46.16" fill="#588766"/>
<path d="M353.7 63.26L367.63 63.13C371.99 63.09 375.05 66.16 374.46 69.98L372.56 82.4L353.57 63.36" fill="#588766"/>
<path d="M371.58 80.4499L384.78 79.3299C388.91 78.9799 392.03 81.6699 391.75 85.3399L390.84 97.2499L371.48 80.5399" fill="#588766"/>
<path d="M389.38 94.01L402.63 94.27C406.77 94.35 409.6 97.35 408.94 100.97L406.8 112.72L389.26 94.1" fill="#588766"/>
<path d="M405.42 111.8L417.42 112.04C421.17 112.11 423.73 114.83 423.13 118.11L421.19 128.75L405.32 111.89" fill="#588766"/>
<path d="M420.128 127.145L430.842 126.858C434.192 126.763 436.583 129.085 436.19 132.033L434.899 141.607L420.032 127.217" fill="#588766"/>
<path d="M434.523 141.07L443.428 140.416C446.209 140.214 448.294 142.043 448.079 144.517L447.379 152.534L434.46 141.137" fill="#588766"/>
<path d="M447.05 151.587L454.32 150.097C456.59 149.627 458.53 150.917 458.65 152.977L459.02 159.657L447 151.657" fill="#588766"/>
<path d="M458.128 158.902L463.125 157.328C464.686 156.834 466.14 157.6 466.365 159.038L467.105 163.699L458.091 158.955" fill="#588766"/>
<path d="M466.151 162.984L470.637 161.391C472.043 160.889 473.381 161.544 473.635 162.836L474.463 167.044L466.118 163.024" fill="#588766"/>
<path d="M472.032 167.051L476.093 166.077C477.366 165.77 478.487 166.407 478.608 167.486L479 171L472 167.081" fill="#588766"/>
<path d="M391.49 96.4999C375.78 81.0699 374.72 82.3099 364.39 70.8699C356.65 62.2999 353.43 57.6499 344.22 48.3499C340.28 44.3699 335.5 40.0199 328.83 34.6599C321.67 28.9099 266.64 -2.66006 204.52 17.8899C171.24 28.8999 150.41 50.2699 140.76 61.6899L139.5 61.4999C128.97 54.3699 120.92 53.3599 116.44 52.9399C106.84 52.0499 99.0102 54.2599 90.3602 56.7099C82.0402 59.0699 75.5402 61.9999 67.4002 65.7599C56.1002 70.9999 55.7602 72.1599 48.7302 74.7099C36.2702 79.2399 34.2302 76.7099 26.0202 80.3499C11.8602 86.6099 5.40017 99.6499 4.45017 101.65C4.45017 101.65 -2.87983 117.01 2.43017 131.38C3.02017 132.97 3.82017 134.22 5.01017 135.14C6.83017 136.55 9.06017 136.82 10.9302 136.72C10.9202 136.75 10.9102 136.8 10.8902 136.86C9.82017 141.04 16.8402 146.18 19.2102 147.92C30.5202 156.21 56.5102 158.31 61.0002 158.67C105.03 162.23 105.46 162.29 109.11 162.27C121.43 162.18 136.2 161.32 152.76 158.75C166.34 161.09 185.26 158.17 209.54 160.32C219.39 161.19 223.95 161.36 229.54 161.72C263.03 163.85 285.2 159.71 302.76 158.44C350.5 166.5 356.72 177.79 430 180.5C436.91 180.76 477.64 178.92 478.94 171.48C479.63 167.58 464.004 164 448.5 153C434.11 142.79 424.72 130.83 418.03 124.42C405.17 112.12 406.87 111.6 391.49 96.4999Z" fill="#73AB86" stroke="#588766" stroke-miterlimit="10"/>
<path d="M98.4491 94.77C98.3091 96.65 97.2491 98.11 96.0691 98.03C94.8891 97.94 94.0491 96.35 94.1891 94.46C94.3291 92.58 95.3191 92.07 96.4991 92.15C97.6691 92.24 98.5791 92.89 98.4491 94.77Z" fill="#393F3B"/>
<path d="M43.2598 133.1C43.1398 134.02 41.7798 141.36 40.0498 141.42C38.0798 141.49 36.3698 134.11 36.2598 133.63" fill="#E7EAD6"/>
<path d="M43.2598 133.1C43.1098 134.61 42.8198 136.11 42.4398 137.58C42.2498 138.32 42.0298 139.05 41.7198 139.76C41.5698 140.12 41.3998 140.47 41.1798 140.8C40.9598 141.12 40.6998 141.5 40.1998 141.63C39.6698 141.73 39.2498 141.41 38.9798 141.13C38.6998 140.83 38.4798 140.5 38.2898 140.16C37.9098 139.48 37.6098 138.77 37.3598 138.05C36.8698 136.6 36.4998 135.13 36.2598 133.62C36.7198 135.07 37.1798 136.51 37.7498 137.9C38.0298 138.6 38.3298 139.29 38.6998 139.92C38.8898 140.23 39.0998 140.54 39.3398 140.78C39.5798 141.01 39.8698 141.21 40.1098 141.15C40.3498 141.1 40.6098 140.83 40.7998 140.53C40.9998 140.23 41.1698 139.9 41.3198 139.56C41.6098 138.88 41.8598 138.17 42.0998 137.45C42.5398 136.04 42.9298 134.58 43.2598 133.1Z" fill="#4D514E"/>
<path d="M35.1191 133.94C35.1191 134.34 34.7591 137.58 33.1891 137.86C31.3991 138.18 28.6991 135.12 28.5391 134.94" fill="#E7EAD6"/>
<path d="M35.1191 133.94C35.1691 134.81 35.0391 135.68 34.7391 136.52C34.5891 136.94 34.3691 137.35 34.0291 137.69C33.6891 138.04 33.1191 138.2 32.6491 138.12C31.6991 137.96 30.9591 137.43 30.2891 136.87C29.6291 136.3 29.0391 135.66 28.5391 134.95C29.1891 135.52 29.8391 136.08 30.5191 136.57C31.2091 137.04 31.9391 137.52 32.6991 137.63C33.4691 137.79 34.0291 137.12 34.3691 136.37C34.7291 135.61 34.9591 134.78 35.1191 133.94Z" fill="#4D514E"/>
<path d="M28.1695 135.67C28.1195 136.03 27.3595 138.93 25.6395 139.04C23.6895 139.16 21.1595 136.14 21.0195 135.96" fill="#E7EAD6"/>
<path d="M28.1695 135.67C28.0895 136.53 27.8195 137.36 27.3495 138.12C27.1095 138.5 26.7995 138.84 26.3695 139.08C25.9395 139.32 25.4095 139.34 24.9695 139.23C24.0695 139 23.3395 138.48 22.6995 137.9C22.0595 137.32 21.4895 136.67 21.0195 135.96C21.6395 136.54 22.2695 137.11 22.9395 137.61C23.6095 138.09 24.3195 138.57 25.0795 138.74C25.8495 138.96 26.5395 138.55 27.0295 137.89C27.5195 137.24 27.8895 136.47 28.1695 135.67Z" fill="#4D514E"/>
<path d="M20.9391 137.04C20.8591 137.4 19.8291 140.25 18.1091 140.2C16.1491 140.14 13.9191 136.87 13.7891 136.67" fill="#E7EAD6"/>
<path d="M20.9391 137.04C20.7891 137.89 20.4391 138.7 19.9091 139.42C19.6391 139.78 19.2991 140.1 18.8491 140.3C18.3991 140.5 17.8591 140.48 17.4291 140.32C16.5491 140.01 15.8691 139.41 15.2891 138.77C14.7091 138.13 14.1991 137.43 13.7891 136.67C14.3591 137.31 14.9291 137.94 15.5491 138.51C16.1691 139.06 16.8391 139.6 17.5791 139.85C18.3291 140.15 19.0491 139.78 19.5991 139.17C20.1491 138.56 20.5791 137.82 20.9391 137.04Z" fill="#4D514E"/>
<path d="M13.6408 137.17C13.5108 137.56 12.1508 140.66 10.4408 140.45C8.50078 140.21 6.66078 136.35 6.55078 136.12" fill="#E7EAD6"/>
<path d="M13.6405 137.17C13.4105 138.05 12.9905 138.89 12.4205 139.63C12.1305 140 11.7705 140.33 11.3105 140.55C10.8405 140.78 10.2405 140.73 9.80055 140.52C8.90055 140.08 8.30055 139.33 7.79055 138.57C7.28055 137.8 6.87055 136.98 6.56055 136.13C7.04055 136.9 7.54055 137.65 8.09055 138.35C8.65055 139.03 9.26055 139.72 10.0005 140.07C10.7405 140.47 11.5305 140.01 12.1205 139.37C12.7205 138.73 13.2205 137.96 13.6405 137.17Z" fill="#4D514E"/>
<path d="M56.7405 134.41C52.1605 134.96 47.5205 134.46 43.0505 134.69C38.5405 134.89 34.0505 135.47 29.5705 136.22C27.3105 136.62 25.0105 136.89 22.7205 137.1C21.5705 137.19 20.4205 137.26 19.2805 137.33C18.1305 137.41 16.9805 137.47 15.8205 137.48C13.5105 137.51 11.1705 137.42 8.88047 136.87C7.74047 136.6 6.63047 136.18 5.63047 135.56C4.63047 134.95 3.78047 134.09 3.23047 133.09C4.60047 134.98 6.84047 135.82 9.03047 136.15C11.2405 136.48 13.5105 136.41 15.7605 136.24C18.0105 136.06 20.2805 135.76 22.5205 135.41C24.7705 135.1 26.9905 134.69 29.2405 134.29C30.3605 134.09 31.5005 133.88 32.6505 133.71C33.8005 133.55 34.9505 133.42 36.1005 133.31C38.3905 133.07 40.7105 132.99 43.0305 133C45.3505 133.05 47.6705 133.29 49.9305 133.6C52.1905 133.91 54.4505 134.17 56.7405 134.41Z" fill="#588766"/>
<path d="M95.8909 96.57C96.3106 96.57 96.6509 96.2298 96.6509 95.81C96.6509 95.3903 96.3106 95.05 95.8909 95.05C95.4711 95.05 95.1309 95.3903 95.1309 95.81C95.1309 96.2298 95.4711 96.57 95.8909 96.57Z" fill="#E7EAD6"/>
<path d="M27.8391 106.58C27.1091 105.87 26.7991 104.76 26.8991 103.69C27.0091 102.61 27.5591 101.54 28.4191 100.8C29.2691 100.06 30.4091 99.66 31.4991 99.72C32.5791 99.77 33.6291 100.24 34.2291 101.07C33.2291 100.99 32.3891 101.06 31.6491 101.29C30.9091 101.51 30.2691 101.86 29.7291 102.32C28.6491 103.24 27.9491 104.59 27.8391 106.58Z" fill="#588766"/>
<path d="M68.0211 79.3691C69.0281 78.4989 68.5799 76.3301 67.0201 74.5249C65.4602 72.7198 63.3793 71.9618 62.3722 72.8321C61.3652 73.7023 61.8134 75.8711 63.3732 77.6762C64.9331 79.4814 67.014 80.2393 68.0211 79.3691Z" fill="#6FA37F"/>
<path d="M52.2908 81.9993C53.3687 79.8709 53.28 77.658 52.0926 77.0566C50.9052 76.4553 49.0688 77.6932 47.9908 79.8217C46.9129 81.9501 47.0016 84.163 48.189 84.7644C49.3764 85.3657 51.2128 84.1278 52.2908 81.9993Z" fill="#6FA37F"/>
<path d="M58.8749 75.7105C59.3128 74.4771 59.0055 73.242 58.1885 72.9519C57.3714 72.6618 56.354 73.4264 55.916 74.6598C55.4781 75.8932 55.7854 77.1283 56.6025 77.4184C57.4195 77.7085 58.4369 76.9438 58.8749 75.7105Z" fill="#6FA37F"/>
<path d="M58.0869 87.0573C59.3839 86.8814 60.3408 86.0423 60.2243 85.1831C60.1077 84.3239 58.9618 83.77 57.6648 83.9459C56.3678 84.1218 55.4109 84.9609 55.5274 85.8201C55.644 86.6793 56.7899 87.2332 58.0869 87.0573Z" fill="#6FA37F"/>
<path d="M70.6917 70.1395C70.7692 69.0763 69.5281 68.1195 67.9196 68.0022C66.3111 67.885 64.9444 68.6518 64.8669 69.7149C64.7894 70.778 66.0305 71.7349 67.639 71.8522C69.2474 71.9694 70.6142 71.2026 70.6917 70.1395Z" fill="#6FA37F"/>
<path d="M60.8862 80.2667C61.1892 79.4132 60.9751 78.558 60.4078 78.3566C59.8405 78.1552 59.135 78.6838 58.8319 79.5373C58.5289 80.3908 58.7431 81.2459 59.3103 81.4474C59.8776 81.6488 60.5831 81.1202 60.8862 80.2667Z" fill="#6FA37F"/>
<path d="M43.3257 80.0617C43.435 79.4697 42.8015 78.8566 41.9108 78.6922C41.0201 78.5278 40.2094 78.8744 40.1002 79.4664C39.9909 80.0584 40.6244 80.6716 41.5151 80.836C42.4058 81.0004 43.2165 80.6537 43.3257 80.0617Z" fill="#6FA37F"/>
<path d="M55.8423 82.3095C56.2137 82.2024 56.3833 81.6595 56.221 81.097C56.0587 80.5346 55.626 80.1655 55.2546 80.2726C54.8831 80.3798 54.7136 80.9226 54.8759 81.4851C55.0381 82.0476 55.4708 82.4167 55.8423 82.3095Z" fill="#6FA37F"/>
<path d="M61.2543 72.0872C61.8396 72.0811 62.3109 71.7627 62.3068 71.3762C62.3028 70.9896 61.8249 70.6812 61.2396 70.6874C60.6542 70.6935 60.183 71.0119 60.187 71.3984C60.1911 71.785 60.6689 72.0934 61.2543 72.0872Z" fill="#6FA37F"/>
<path d="M72.3249 75.4998C72.6967 75.0476 72.7559 74.482 72.4573 74.2365C72.1586 73.991 71.6152 74.1586 71.2434 74.6108C70.8717 75.0631 70.8124 75.6287 71.1111 75.8742C71.4097 76.1197 71.9532 75.9521 72.3249 75.4998Z" fill="#6FA37F"/>
<path d="M46.3629 79.2511C46.6554 78.9983 46.5823 78.4343 46.1995 77.9914C45.8168 77.5485 45.2694 77.3943 44.9769 77.6471C44.6844 77.8998 44.7575 78.4638 45.1403 78.9067C45.523 79.3497 46.0704 79.5038 46.3629 79.2511Z" fill="#6FA37F"/>
<path d="M95.6406 86.46C96.7406 87.28 97.7006 88.07 98.7606 88.73C99.8106 89.41 100.921 89.94 102.161 90.52C100.791 90.73 99.3906 90.3 98.2206 89.57C97.0706 88.82 96.1006 87.75 95.6406 86.46Z" fill="#588766"/>
<path d="M190.96 133.98C191.78 137.24 192.3 141.65 189.97 144.95C187.33 148.69 183.02 148.19 174 151.08C168.06 152.98 162.34 154.81 157.13 159.2C155.64 160.45 148.46 166.75 146.87 176.79C145.96 182.53 146.81 189.92 149.42 190.63C150.85 191.02 152.59 189.34 153.11 188.84C154.62 187.38 154.6 186.11 156.59 182.17C158.16 179.06 158.64 178.94 158.88 178.97C159.86 179.09 159.45 182.36 159.48 182.94C159.67 186.32 159.48 186.89 160.02 188.97C160.64 191.33 162.97 193.59 164.76 193.24C166.24 192.95 166.99 190.94 167.45 189.69C168.69 186.33 167.7 184.73 168.06 181.32C168.58 176.37 171.38 172.88 172.31 171.71C173.14 170.68 175.32 168.02 178.87 166.39C183.92 164.07 186.61 166.19 194.62 165.85C200.46 165.61 206.32 165.37 209.71 161.52C213.85 156.84 212.16 149.27 211.53 146.87" fill="#73AB86"/>
<path d="M190.96 133.98C191.47 135.95 191.8 137.99 191.67 140.05C191.56 142.09 190.88 144.15 189.51 145.72C188.14 147.34 186.06 148.05 184.11 148.59L178.18 150.12C176.21 150.65 174.28 151.26 172.34 151.91C170.4 152.55 168.48 153.22 166.61 153.99C162.86 155.53 159.33 157.61 156.39 160.37C153.47 163.14 151.03 166.45 149.35 170.1C147.68 173.76 146.89 177.78 146.97 181.81C147 183.81 147.2 185.85 147.79 187.71C148.09 188.62 148.53 189.55 149.18 190.01C149.8 190.45 150.73 190.09 151.5 189.55C152.27 189 153.04 188.31 153.53 187.55C154.03 186.77 154.37 185.79 154.78 184.85C155.18 183.9 155.61 182.96 156.07 182.04C156.54 181.12 157 180.21 157.63 179.31C157.8 179.09 157.96 178.86 158.27 178.63C158.4 178.52 158.79 178.38 159.04 178.5C159.32 178.57 159.51 178.78 159.61 178.94C159.83 179.28 159.87 179.58 159.92 179.86C159.97 180.15 159.98 180.41 159.99 180.68C160.01 181.22 159.98 181.74 159.96 182.25C159.95 182.5 159.93 182.77 159.94 182.96L159.98 183.73C160.03 184.75 160.03 185.79 160.1 186.77C160.18 187.72 160.38 188.75 160.72 189.59C161.1 190.45 161.67 191.26 162.38 191.87C163.07 192.48 163.98 192.94 164.73 192.74C165.49 192.55 166.05 191.69 166.46 190.83C166.86 189.94 167.22 188.98 167.42 188.04C167.87 186.15 167.38 184.12 167.53 182C167.65 179.9 168.21 177.84 169.09 175.95C169.96 174.05 171.17 172.32 172.52 170.76C173.88 169.19 175.48 167.8 177.29 166.76C179.08 165.71 181.14 165 183.25 164.94C185.35 164.88 187.37 165.26 189.39 165.41C191.41 165.59 193.43 165.6 195.47 165.52C197.51 165.44 199.54 165.35 201.54 165.05C203.54 164.77 205.53 164.26 207.27 163.26C208.13 162.75 208.93 162.12 209.6 161.38C210.24 160.61 210.83 159.78 211.21 158.84C212.03 156.99 212.33 154.93 212.31 152.91C212.31 150.87 211.99 148.84 211.5 146.86C212.03 148.83 212.39 150.86 212.43 152.9C212.48 154.94 212.23 157.03 211.43 158.93C211.05 159.89 210.47 160.76 209.82 161.57C209.14 162.35 208.33 163.02 207.44 163.56C205.66 164.63 203.62 165.19 201.6 165.52C199.57 165.85 197.52 165.96 195.48 166.07C193.44 166.18 191.37 166.19 189.33 166.03C187.28 165.89 185.25 165.54 183.27 165.63C181.29 165.71 179.38 166.39 177.67 167.41C175.96 168.43 174.44 169.76 173.15 171.29C171.84 172.83 170.7 174.48 169.87 176.3C169.04 178.11 168.52 180.06 168.41 182.04C168.35 183.03 168.42 184.02 168.48 185.05C168.54 186.08 168.54 187.17 168.31 188.21C168.08 189.27 167.72 190.23 167.29 191.2C167.06 191.68 166.8 192.16 166.44 192.61C166.08 193.04 165.6 193.46 164.97 193.63C164.35 193.8 163.71 193.69 163.18 193.47C162.64 193.25 162.18 192.93 161.76 192.58C160.93 191.86 160.28 190.96 159.84 189.96C159.42 188.92 159.23 187.91 159.13 186.83C159.06 185.77 159.06 184.77 159 183.76L158.96 183C158.94 182.68 158.97 182.44 158.98 182.18C159 181.67 159.02 181.18 159.01 180.69C158.99 180.23 158.93 179.68 158.79 179.46C158.76 179.4 158.75 179.42 158.78 179.43C158.8 179.43 158.91 179.41 158.84 179.43C158.74 179.5 158.58 179.69 158.44 179.87C157.36 181.47 156.48 183.36 155.68 185.19C155.27 186.11 154.94 187.09 154.34 188.03C153.71 188.97 152.91 189.66 152.04 190.3C151.59 190.6 151.1 190.89 150.52 191.03C150.23 191.11 149.91 191.13 149.59 191.1C149.26 191.07 148.97 190.9 148.68 190.77C147.66 190.02 147.25 188.95 146.91 187.96C146.28 185.93 146.1 183.85 146.07 181.78C146 177.65 146.84 173.47 148.57 169.7C150.3 165.93 152.84 162.57 155.87 159.77C158.92 156.96 162.56 154.88 166.38 153.37C168.29 152.61 170.23 151.95 172.18 151.33C174.12 150.71 176.09 150.1 178.07 149.61L184.03 148.2C185.97 147.7 187.99 147.05 189.34 145.52C190.7 144.03 191.41 142.02 191.56 140C191.72 138.01 191.43 135.96 190.96 133.98Z" fill="#588766"/>
<path d="M273.529 145.45C273.109 148.19 272.109 154.62 275.259 160.55C277.909 165.55 282.409 167.67 291.319 171.7C297.059 174.3 300.919 176.05 306.559 177.04C318.359 179.1 321.589 174.95 333.519 177.73C338.119 178.8 340.809 179.43 344.019 181.51C346.859 183.35 348.449 185.25 352.419 186.9C355.239 188.08 356.879 188.76 358.569 188.2C360.869 187.44 362.439 184.63 364.839 174.23C367.759 161.59 369.189 155.14 367.579 149.04C366.679 145.63 365.399 140.74 361.349 137.61C357.979 134.99 354.769 135.21 337.909 136.29C328.229 136.91 323.329 137.21 320.429 136.65C313.489 135.32 313.229 133.19 304.359 130.27C295.019 127.19 288.399 125.01 282.589 128.5C275.489 132.76 273.929 142.88 273.529 145.45Z" fill="#588766"/>
<path d="M271.68 145.15C271.25 147.77 270.25 153.92 273.46 159.68C276.16 164.53 280.75 166.65 289.82 170.7C295.67 173.31 299.6 175.06 305.34 176.12C317.36 178.33 320.63 174.4 332.78 177.31C337.47 178.43 340.2 179.08 343.47 181.14C346.36 182.96 347.99 184.81 352.03 186.48C354.91 187.67 356.57 188.35 358.29 187.85C360.63 187.16 362.22 184.5 364.65 174.56C367.6 162.48 369.04 156.32 367.4 150.44C366.48 147.15 365.16 142.43 361.05 139.34C357.61 136.76 354.35 136.91 337.19 137.62C327.34 138.03 322.35 138.22 319.4 137.63C312.33 136.22 312.07 134.17 303.03 131.19C293.52 128.05 279.94 119.9 274.04 123.13C266.81 127.07 272.07 142.69 271.68 145.15Z" fill="url(#paint0_radial_344_116)"/>
<path d="M356.21 189.6C356.18 189.6 356.16 189.6 356.14 189.59C352.7 189.14 349.37 187.56 349.19 184.9C348.98 181.83 354.13 178.88 363.18 178.8C363.57 178.8 363.87 179.14 363.79 179.49C363.41 181.11 362.41 184.81 360.7 187.2C359.58 188.76 358.54 189.21 357.92 189.4C357.24 189.6 356.63 189.62 356.21 189.6Z" fill="url(#paint1_radial_344_116)"/>
<path d="M365.329 177.66C365.249 177.93 364.999 178.12 364.719 178.11C362.419 177.99 359.259 177.41 356.309 175.29C354.859 174.25 352.359 172.45 352.569 170.26C352.779 168.06 355.599 166.76 356.979 166.12C361.029 164.25 365.149 164.86 367.599 165.5C367.919 165.58 368.109 165.89 368.049 166.21C367.689 168.08 367.289 170.01 366.819 171.99C366.379 173.94 365.839 175.84 365.329 177.66Z" fill="url(#paint2_radial_344_116)"/>
<path d="M368.26 164.07C368.19 164.36 367.91 164.55 367.61 164.5C360.95 163.39 356.74 160.21 356.94 158.08C357.14 155.97 361.74 153.69 368.22 153.68C368.51 153.68 368.75 153.89 368.79 154.18C368.93 155.41 369.01 156.8 368.97 158.33C368.91 160.53 368.62 162.46 368.26 164.07Z" fill="url(#paint3_radial_344_116)"/>
<path d="M305.765 165.812C306.097 164.319 304.194 162.625 301.515 162.03C298.835 161.434 296.394 162.162 296.062 163.655C295.73 165.149 297.633 166.842 300.313 167.438C302.992 168.033 305.433 167.306 305.765 165.812Z" fill="#6FA37F"/>
<path d="M306.901 159.512C307.099 158.622 305.965 157.614 304.369 157.259C302.773 156.904 301.319 157.338 301.122 158.227C300.924 159.117 302.057 160.126 303.653 160.48C305.249 160.835 306.703 160.402 306.901 159.512Z" fill="#6FA37F"/>
<path d="M292.902 163.141C293.472 162.67 293.251 161.46 292.407 160.437C291.563 159.415 290.417 158.968 289.846 159.439C289.275 159.911 289.497 161.121 290.34 162.143C291.184 163.166 292.331 163.612 292.902 163.141Z" fill="#6FA37F"/>
<path d="M310.194 169.732C311.38 169.004 312.011 167.876 311.603 167.212C311.196 166.548 309.904 166.601 308.718 167.329C307.532 168.057 306.901 169.186 307.308 169.849C307.716 170.513 309.007 170.461 310.194 169.732Z" fill="#6FA37F"/>
<path d="M306.578 151.396C307.562 150.792 308.085 149.856 307.747 149.305C307.409 148.754 306.337 148.798 305.353 149.402C304.37 150.006 303.846 150.942 304.185 151.492C304.523 152.043 305.594 152 306.578 151.396Z" fill="#6FA37F"/>
<path d="M297.589 170.029C298.286 169.602 298.656 168.938 298.416 168.548C298.176 168.157 297.417 168.187 296.72 168.615C296.024 169.042 295.653 169.706 295.893 170.097C296.133 170.487 296.892 170.457 297.589 170.029Z" fill="#6FA37F"/>
<path d="M295.11 160.59C294.91 160.26 295.22 159.7 295.81 159.34C296.4 158.98 297.04 158.95 297.24 159.28" fill="#6FA37F"/>
<path d="M309.157 163.559C309.208 163.176 308.695 162.791 308.011 162.699C307.327 162.607 306.731 162.843 306.679 163.227C306.628 163.61 307.141 163.995 307.825 164.087C308.509 164.179 309.105 163.942 309.157 163.559Z" fill="#6FA37F"/>
<path d="M297.328 156.574C299.617 155.447 300.962 153.497 300.333 152.219C299.704 150.941 297.338 150.818 295.049 151.945C292.76 153.072 291.415 155.022 292.044 156.3C292.673 157.579 295.039 157.701 297.328 156.574Z" fill="#6FA37F"/>
<path d="M315.331 163.964C316.602 163.083 316.355 160.526 314.779 158.252C313.203 155.978 310.895 154.848 309.624 155.729C308.353 156.61 308.6 159.167 310.176 161.441C311.752 163.716 314.06 164.845 315.331 163.964Z" fill="#6FA37F"/>
<path d="M260.708 33.2257C267.212 32.243 272.04 28.5068 271.492 24.8807C270.945 21.2546 265.228 19.1117 258.724 20.0944C252.22 21.0771 247.391 24.8133 247.939 28.4394C248.487 32.0655 254.204 34.2084 260.708 33.2257Z" fill="#6FA37F"/>
<path d="M258.887 49.9969C262.765 49.411 265.643 47.183 265.316 45.0205C264.989 42.8579 261.581 41.5797 257.704 42.1656C253.827 42.7514 250.948 44.9794 251.275 47.142C251.602 49.3045 255.01 50.5827 258.887 49.9969Z" fill="#6FA37F"/>
<path d="M303.342 48.9412C305.523 48.7884 307.07 45.4933 306.796 41.5815C306.522 37.6697 304.531 34.6224 302.349 34.7753C300.167 34.9282 298.621 38.2233 298.895 42.1351C299.169 46.0469 301.16 49.0941 303.342 48.9412Z" fill="#6FA37F"/>
<path d="M288.522 35.31C289.39 33.7645 287.846 31.2482 285.073 29.6897C282.3 28.1313 279.347 28.1208 278.479 29.6664C277.61 31.2119 279.154 33.7282 281.928 35.2867C284.701 36.8451 287.653 36.8556 288.522 35.31Z" fill="#6FA37F"/>
<path d="M239.543 33.891C241.562 31.2427 242.002 28.1838 240.527 27.0588C239.051 25.9337 236.218 27.1684 234.199 29.8166C232.18 32.4649 231.739 35.5238 233.215 36.6489C234.69 37.774 237.524 36.5392 239.543 33.891Z" fill="#6FA37F"/>
<path d="M261.736 63.5024C263.414 61.3021 263.781 58.7611 262.555 57.8268C261.33 56.8926 258.977 57.9189 257.299 60.1192C255.622 62.3195 255.255 64.8605 256.48 65.7947C257.706 66.729 260.059 65.7026 261.736 63.5024Z" fill="#6FA37F"/>
<path d="M275.264 40.6447C276.265 39.3316 276.482 37.8138 275.749 37.2546C275.015 36.6954 273.609 37.3065 272.608 38.6197C271.607 39.9328 271.389 41.4506 272.123 42.0098C272.856 42.569 274.263 41.9579 275.264 40.6447Z" fill="#6FA37F"/>
<path d="M215.388 55.558C216.309 55.5231 217.006 54.157 216.943 52.5068C216.881 50.8567 216.083 49.5473 215.161 49.5822C214.239 49.6172 213.543 50.9832 213.606 52.6334C213.668 54.2836 214.466 55.593 215.388 55.558Z" fill="#6FA37F"/>
<path d="M294.399 40.9098C294.439 39.2589 293.724 37.9026 292.802 37.8804C291.88 37.8582 291.1 39.1784 291.06 40.8293C291.021 42.4801 291.736 43.8364 292.658 43.8586C293.58 43.8808 294.36 42.5606 294.399 40.9098Z" fill="#6FA37F"/>
<path d="M245.13 43.6433C246.736 43.2584 247.863 42.2193 247.648 41.3223C247.433 40.4253 245.957 40.0103 244.351 40.3952C242.745 40.7801 241.618 41.8193 241.833 42.7162C242.048 43.6132 243.524 44.0283 245.13 43.6433Z" fill="#6FA37F"/>
<path d="M245.674 23.6749C246.272 22.9724 245.737 21.5354 244.479 20.4653C243.221 19.3953 241.717 19.0973 241.119 19.7999C240.522 20.5024 241.057 21.9394 242.315 23.0094C243.572 24.0795 245.077 24.3774 245.674 23.6749Z" fill="#6FA37F"/>
<path d="M294.151 28.2721C295.757 27.8872 296.885 26.848 296.67 25.9511C296.455 25.0541 294.979 24.6391 293.373 25.024C291.767 25.4089 290.639 26.4481 290.854 27.345C291.069 28.242 292.545 28.6571 294.151 28.2721Z" fill="#6FA37F"/>
<path d="M283.304 56.4966C287.447 52.0005 288.774 46.4836 286.268 44.1743C283.762 41.865 278.372 43.6377 274.229 48.1338C270.085 52.6299 268.758 58.1467 271.264 60.4561C273.77 62.7654 279.16 60.9927 283.304 56.4966Z" fill="#6FA37F"/>
<path d="M247.56 60.6389C249.634 57.5811 246.869 52.086 241.384 48.3654C235.899 44.6448 229.771 44.1075 227.697 47.1653C225.623 50.2231 228.388 55.7181 233.873 59.4387C239.357 63.1593 245.485 63.6967 247.56 60.6389Z" fill="#6FA37F"/>
<path d="M221.833 39.501C225.852 34.2309 226.727 28.1426 223.789 25.9025C220.851 23.6624 215.212 26.1186 211.194 31.3888C207.175 36.6589 206.3 42.7472 209.238 44.9873C212.176 47.2274 217.815 44.7712 221.833 39.501Z" fill="#6FA37F"/>
<path d="M396.121 155.29C400.341 155.29 403.971 155.91 407.011 157.15C410.051 158.39 412.561 160.05 414.561 162.13C416.561 164.21 418.051 166.64 419.031 169.43C420.011 172.21 420.591 175.13 420.761 178.16C420.871 180.58 420.931 183.11 420.931 185.75C420.931 188.39 420.871 190.87 420.761 193.18C420.591 196.22 420.011 199.13 419.031 201.91C418.051 204.69 416.551 207.13 414.561 209.21C412.561 211.29 410.051 212.95 407.011 214.19C403.971 215.43 400.341 216.05 396.121 216.05C391.901 216.05 388.271 215.43 385.231 214.19C382.191 212.95 379.671 211.29 377.681 209.21C375.681 207.13 374.191 204.7 373.211 201.91C372.231 199.13 371.651 196.21 371.481 193.18C371.371 190.87 371.311 188.4 371.311 185.75C371.311 183.11 371.371 180.58 371.481 178.16C371.651 175.12 372.231 172.21 373.211 169.43C374.191 166.65 375.681 164.21 377.681 162.13C379.681 160.05 382.191 158.39 385.231 157.15C388.271 155.9 391.901 155.29 396.121 155.29ZM405.141 192.75C405.361 187.97 405.361 183.24 405.141 178.57C405.031 177.16 404.821 175.87 404.511 174.69C404.201 173.51 403.711 172.48 403.031 171.61C402.361 170.74 401.461 170.05 400.331 169.54C399.201 169.03 397.801 168.78 396.111 168.78C394.421 168.78 393.021 169.03 391.891 169.54C390.761 170.05 389.861 170.74 389.191 171.61C388.511 172.48 388.011 173.51 387.671 174.69C387.331 175.87 387.141 177.17 387.081 178.57C386.801 183.24 386.801 187.97 387.081 192.75C387.141 194.16 387.321 195.45 387.631 196.63C387.941 197.81 388.451 198.84 389.151 199.71C389.851 200.58 390.771 201.27 391.891 201.78C393.011 202.29 394.421 202.54 396.111 202.54C397.801 202.54 399.201 202.29 400.331 201.78C401.461 201.27 402.371 200.59 403.071 199.71C403.771 198.84 404.281 197.81 404.591 196.63C404.901 195.45 405.091 194.16 405.141 192.75Z" fill="#363940"/>
<path d="M262.29 156.13C266 156.13 269.32 156.52 272.25 157.31C275.17 158.1 277.66 159.28 279.72 160.85C281.77 162.42 283.35 164.44 284.45 166.88C285.55 169.33 286.1 172.18 286.1 175.45C286.1 179.67 285.23 183.17 283.48 185.96C281.74 188.74 279.26 190.87 276.06 192.33L286.52 212.41C286.69 212.75 286.77 213.06 286.77 213.34C286.77 213.85 286.59 214.28 286.22 214.65C285.85 215.02 285.42 215.2 284.91 215.2H273.43C272.3 215.2 271.5 214.95 271.03 214.44C270.55 213.93 270.17 213.43 269.89 212.92L260.52 194.86H252.76V212.92C252.76 213.54 252.53 214.07 252.08 214.52C251.63 214.97 251.1 215.2 250.48 215.2H239.42C238.8 215.2 238.27 214.98 237.82 214.52C237.37 214.07 237.15 213.54 237.15 212.92V158.41C237.15 157.79 237.37 157.26 237.82 156.81C238.27 156.36 238.8 156.13 239.42 156.13H262.29ZM252.75 181.7H262.28C264.64 181.7 266.6 181.25 268.14 180.35C269.69 179.45 270.46 177.82 270.46 175.46C270.46 173.1 269.69 171.47 268.14 170.57C266.59 169.67 264.64 169.22 262.28 169.22H252.75V181.7Z" fill="#363940"/>
</g>
<defs>
<radialGradient id="paint0_radial_344_116" cx="0" cy="0" r="1" gradientUnits="userSpaceOnUse" gradientTransform="translate(252.617 199.053) rotate(-79.7258) scale(73.2137 71.8703)">
<stop offset="0.2989" stop-color="#73AB86"/>
<stop offset="1" stop-color="#73AB86"/>
</radialGradient>
<radialGradient id="paint1_radial_344_116" cx="0" cy="0" r="1" gradientUnits="userSpaceOnUse" gradientTransform="translate(356.177 183.567) rotate(-79.7238) scale(6.35776)">
<stop offset="2.6639e-08" stop-color="#EFE8CA"/>
<stop offset="1" stop-color="#E5DAAE"/>
</radialGradient>
<radialGradient id="paint2_radial_344_116" cx="0" cy="0" r="1" gradientUnits="userSpaceOnUse" gradientTransform="translate(359.841 170.688) rotate(-79.7239) scale(6.92609)">
<stop offset="2.6639e-08" stop-color="#EFE8CA"/>
<stop offset="1" stop-color="#E5DAAE"/>
</radialGradient>
<radialGradient id="paint3_radial_344_116" cx="0" cy="0" r="1" gradientUnits="userSpaceOnUse" gradientTransform="translate(363.11 158.205) rotate(-79.7239) scale(5.76234)">
<stop offset="2.6639e-08" stop-color="#EFE8CA"/>
<stop offset="1" stop-color="#E5DAAE"/>
</radialGradient>
<clipPath id="clip0_344_116">
<rect width="481.76" height="216.04" fill="white"/>
</clipPath>
</defs>
</svg>
