<svg width="24" height="24" viewBox="0 0 24 24" fill="none" xmlns="http://www.w3.org/2000/svg">
<path d="M5.21679 1.18374C4.9203 0.775554 3.4056 2.20771 1.83668 4.37989C0.267595 6.55198 1.64077 10.9627 4.901 14.223L9.98127 19.3032C13.2415 22.5635 17.639 23.9234 19.7949 22.3381C21.9507 20.7528 23.4228 19.2626 23.0801 19.0128L20.7655 17.3251L18.5512 15.7104C18.2636 15.5007 17.4742 15.8864 16.7896 16.571C16.1049 17.2556 15.2975 17.5601 14.9879 17.2504L11.03 13.2925L6.95396 9.21646C6.57902 8.84144 6.83048 7.98121 7.51511 7.2965C8.19974 6.61188 8.56582 5.79459 8.33198 5.47262C7.83174 4.78382 7.33146 4.09504 6.83115 3.40629C6.83115 3.40629 6.83115 3.40629 6.83115 3.40629L5.21679 1.18374V1.18374Z" stroke="#E89C16" stroke-linecap="round" stroke-linejoin="round"/>
</svg>
