<svg width="32" height="32" viewBox="0 0 32 32" fill="none" xmlns="http://www.w3.org/2000/svg">
<path d="M16 0.0012207C7.1753 0.0012207 0 7.17662 0 16.0012C0 24.826 7.1753 32.0012 16 32.0012C24.8247 32.0012 32 24.826 32 16.0012C32 7.17662 24.8247 0.0012207 16 0.0012207Z" fill="#FFC10E"/>
<path d="M6.98444 15.0129C6.7199 15.0087 6.46777 14.9 6.28327 14.7104C6.09877 14.5208 5.99694 14.2657 6.00007 14.0012C6.00007 12.5738 6.76387 11.2501 8.00007 10.5363C9.23629 9.82253 10.7639 9.82253 12.0001 10.5363C13.2363 11.2501 14.0001 12.5738 14.0001 14.0012C14.0019 14.1337 13.9775 14.2652 13.928 14.3881C13.8786 14.5111 13.8053 14.6231 13.7122 14.7175C13.6192 14.8118 13.5083 14.8868 13.3861 14.9379C13.2638 14.9891 13.1326 15.0153 13.0001 15.0153C12.8675 15.0153 12.7363 14.9891 12.6141 14.9379C12.4918 14.8868 12.381 14.8118 12.2879 14.7175C12.1949 14.6231 12.1215 14.5111 12.0721 14.3881C12.0227 14.2652 11.9982 14.1337 12.0001 14.0012C12.0001 13.2852 11.6203 12.625 11.0001 12.2668C10.3799 11.9088 9.62027 11.9088 9.00007 12.2668C8.37989 12.625 8.00007 13.2852 8.00007 14.0012C8.00165 14.1348 7.97644 14.2673 7.92591 14.3911C7.87538 14.5148 7.80056 14.6271 7.70588 14.7214C7.6112 14.8157 7.49855 14.8901 7.37464 14.9401C7.25073 14.9902 7.11807 15.015 6.98444 15.0129ZM18.9844 15.0129C18.7199 15.0087 18.4678 14.9 18.2833 14.7104C18.0988 14.5208 17.9969 14.2657 18.0001 14.0012C18.0001 12.5738 18.7639 11.2501 20.0001 10.5363C21.2363 9.82253 22.7639 9.82253 24.0001 10.5363C25.2363 11.2501 26.0001 12.5738 26.0001 14.0012C26.0019 14.1337 25.9775 14.2652 25.928 14.3881C25.8786 14.5111 25.8053 14.6231 25.7122 14.7175C25.6192 14.8118 25.5083 14.8868 25.3861 14.9379C25.2638 14.9891 25.1326 15.0153 25.0001 15.0153C24.8675 15.0153 24.7363 14.9891 24.6141 14.9379C24.4918 14.8868 24.381 14.8118 24.2879 14.7175C24.1949 14.6231 24.1215 14.5111 24.0721 14.3881C24.0227 14.2652 23.9982 14.1337 24.0001 14.0012C24.0001 13.2852 23.6203 12.625 23.0001 12.2668C22.3799 11.9088 21.6203 11.9088 21.0001 12.2668C20.3799 12.625 20.0001 13.2852 20.0001 14.0012C20.0016 14.1348 19.9764 14.2673 19.9259 14.3911C19.8754 14.5148 19.8006 14.6271 19.7059 14.7214C19.6112 14.8157 19.4986 14.8901 19.3746 14.9401C19.2507 14.9902 19.1181 15.015 18.9844 15.0129ZM24.2368 19.6958C24.0064 19.5644 23.7332 19.5299 23.4774 19.6C23.2216 19.6701 23.0041 19.8391 22.8728 20.0695C21.4374 22.4999 18.8322 23.9919 16.0097 24.0007C13.1873 24.0007 10.5698 22.5339 9.11933 20.1127C9.05673 19.9912 8.96989 19.8837 8.86414 19.7971C8.7584 19.7104 8.63599 19.6463 8.50453 19.6088C8.37306 19.5713 8.23528 19.5612 8.09974 19.5791C7.9642 19.5969 7.83379 19.6424 7.7165 19.7126C7.59921 19.7828 7.49752 19.8764 7.41779 19.9875C7.33807 20.0986 7.28197 20.2248 7.25294 20.3583C7.22391 20.4919 7.22259 20.63 7.24903 20.7641C7.27548 20.8982 7.32912 21.0256 7.40669 21.1381C9.21809 24.1617 12.4922 26.0122 16.0169 26.0012C19.5415 25.9812 22.8023 24.1214 24.5948 21.0866C24.6647 20.9723 24.711 20.8453 24.7308 20.7128C24.7507 20.5803 24.7437 20.4451 24.7103 20.3154C24.6769 20.1856 24.6178 20.0639 24.5364 19.9575C24.4551 19.851 24.3532 19.7621 24.2368 19.6958Z" fill="#76391F"/>
</svg>
